/* XPM */
static char *result[] = {
/* columns rows colors chars-per-pixel */
"50 50 192 2 ",
"   c #4C3513",
".  c #4F3814",
"X  c #4F3C1D",
"o  c #503916",
"O  c #533D1C",
"+  c #563E21",
"@  c #493A25",
"#  c #57401C",
"$  c #5A431E",
"%  c #5B481F",
"&  c #4F412A",
"*  c #574021",
"=  c #5C4523",
"-  c #5E4824",
";  c #5A4428",
":  c #5D4A2A",
">  c #54462C",
",  c #5C4D32",
"<  c #5C4F3A",
"1  c #5E5034",
"2  c #5D503A",
"3  c #624C25",
"4  c #634D2A",
"5  c #645027",
"6  c #65512C",
"7  c #6A542D",
"8  c #6D592E",
"9  c #6C5627",
"0  c #71572C",
"q  c #725C2E",
"w  c #614E30",
"e  c #645432",
"r  c #6B5533",
"t  c #675831",
"y  c #6E5A33",
"u  c #62543A",
"i  c #6D5C3B",
"p  c #67593B",
"a  c #725C34",
"s  c #795F35",
"d  c #725E3C",
"f  c #76602F",
"g  c #766134",
"h  c #7A6335",
"j  c #7F6835",
"k  c #75613B",
"l  c #7D6539",
"z  c #7D693A",
"x  c #655541",
"c  c #6A5D42",
"v  c #715E40",
"b  c #756141",
"n  c #7C6741",
"m  c #7C6845",
"M  c #7E6B4A",
"N  c #9B7B26",
"B  c #816636",
"V  c #846C36",
"C  c #80673B",
"Z  c #82693B",
"A  c #8A743A",
"S  c #9A7D37",
"D  c #826B41",
"F  c #806E4C",
"G  c #877146",
"H  c #83704E",
"J  c #847051",
"K  c #8D7B53",
"L  c #897755",
"P  c #9C813F",
"I  c #B08B29",
"U  c #A6893A",
"Y  c #C69A1D",
"T  c #F7B401",
"R  c #F7BA02",
"E  c #FABE00",
"W  c #F8B503",
"Q  c #F6BC16",
"!  c #DDB126",
"~  c #F4B72D",
"^  c #F5BA2C",
"/  c #F4B722",
"(  c #E5BD3E",
")  c #F6BC3F",
"_  c #F5BC31",
"`  c #FBC101",
"'  c #FFC807",
"]  c #FBC30C",
"[  c #FFCA0D",
"{  c #F7C514",
"}  c #FAC413",
"|  c #FFC914",
" . c #F6C01A",
".. c #F8C61C",
"X. c #FAC91C",
"o. c #FFD01B",
"O. c #F7C721",
"+. c #F9C624",
"@. c #F7C823",
"#. c #FAC924",
"$. c #F7C729",
"%. c #F7C92E",
"&. c #FBCC2C",
"*. c #FFD32A",
"=. c #FBCD33",
"-. c #F2C63A",
";. c #F7CD3A",
":. c #FBCF39",
">. c #FDD234",
",. c #FBD13C",
"<. c #9E8440",
"1. c #9E8A4D",
"2. c #978655",
"3. c #9B895C",
"4. c #A08541",
"5. c #B89C49",
"6. c #A28D57",
"7. c #A9965E",
"8. c #B39D5A",
"9. c #B29B50",
"0. c #BFA450",
"q. c #BDA45D",
"w. c #A69462",
"e. c #B2A16A",
"r. c #CAAA47",
"t. c #CEB04E",
"y. c #D7B444",
"u. c #D4B44F",
"i. c #C4A95B",
"p. c #CCB050",
"a. c #CEB15B",
"s. c #DFBD50",
"d. c #D6BA5B",
"f. c #E2BF57",
"g. c #C2AA61",
"h. c #CDB767",
"j. c #D5BC67",
"k. c #C5B374",
"l. c #CDB977",
"z. c #EEC741",
"x. c #EBC94B",
"c. c #EDCA46",
"v. c #F7C247",
"b. c #FACF41",
"n. c #F8C545",
"m. c #FBD343",
"M. c #FFDC46",
"N. c #FBD54B",
"B. c #FFDA4D",
"V. c #E7C352",
"C. c #F7C659",
"Z. c #F6C256",
"A. c #FDD552",
"S. c #FEDC53",
"D. c #FBD35C",
"F. c #FDDB5B",
"G. c #F5D357",
"H. c #FFE254",
"J. c #FFE15C",
"K. c #D9C67B",
"L. c #E9C762",
"P. c #EDD26A",
"I. c #FBDC63",
"U. c #FCDE6B",
"Y. c #ECD572",
"T. c #EFD579",
"R. c #EDD87E",
"E. c #E6D17A",
"W. c #F7D172",
"Q. c #F8DC73",
"!. c #F4DC77",
"~. c #FEE364",
"^. c #FDE16C",
"/. c #FCE373",
"(. c #FFE971",
"). c #FDE47B",
"_. c #FFE97C",
"`. c #F9DC84",
"'. c #E9DB92",
"]. c #FCE784",
"[. c #FEEB84",
"{. c #FDEA8C",
"}. c #F3E18D",
"|. c #FFF48D",
" X c #F7E690",
".X c #FCE692",
"XX c #FDEC93",
"oX c #FDEE9B",
"OX c #FFF095",
"+X c #FFF29F",
"@X c #FCEDA0",
"#X c #FFF4A4",
/* pixels */
"O + + + + + + + + + + + + + o O O O O O o + + + + + + + + + + O O O O O O O O O O O o O O O o o O O ",
"+ + + + + + + + + ; ; ; = + + + + + = + + $ = + = $ = = $ + + $ + O + + 3 + + + + O + + + O O o O o ",
"O + O O + O + + ; + + ; + O O O + o o + + + # # + + $ + + = - = 3 ; 3 ; = 3 = 3 ; ; 3 = 3 ; = 3 3 3 ",
"* * ; ; ; ; ; 3 = = = ; = = + $ $ $ + $ $ $ $ $ $ $ $ = = = = - + 3 + 3 3 + 3 + 3 3 + 3 4 4 4 4 4 4 ",
"= = = 3 3 + 3 ; = = = = 3 + + 3 = = $ - - $ $ 3 - $ $ 3 = $ $ $ $ % $ $ # = $ 3 = = = 3 $ = = = = = ",
"3 = 3 3 3 3 3 3 3 3 3 3 3 3 3 3 - - - 3 - 3 - - - - 3 3 - 3 - 3 3 3 3 3 3 3 3 3 3 3 3 3 3 3 = 3 3 = ",
"4 7 5 5 4 3 4 4 5 5 5 5 3 4 3 4 3 3 3 3 3 3 3 3 3 3 3 3 3 3 3 3 3 3 3 3 3 3 3 3 3 3 3 3 3 3 4 4 4 4 ",
"3 3 - 3 3 3 3 3 - 3 3 = 3 3 O 3 - - 3 - $ 3 3 - $ 3 3 $ - 3 - - = = % 3 % = $ $ $ $ = = + = + $ + + ",
"3 3 3 4 3 3 5 3 3 3 3 3 3 3 3 3 3 3 3 3 3 3 - 3 3 3 = % 3 3 3 3 3 3 3 3 3 3 3 3 3 = 3 = 4 7 4 4 4 4 ",
"0 s 0 s s s s s s s s g s s 0 a a i s 7 6 y k a 0 0 a a 0 a e 4 0 y y a y y s a s C d C d d d d C d ",
"3 3 3 3 3 3 3 3 5 3 3 3 5 5 4 4 3 6 # n k.E.Y.R.W.x.c.x.x.x.r.V o = $ = 3 3 3 3 4 4 7 4 7 4 w 7 4 4 ",
"O O O O O O o O # # # $ O $ $ = % o K /.*.' ] | B._.S.S.B.B.H.H.U   . .       . o o o o o           ",
"0 9 7 7 7 7 0 r 9 7 r r r r r 0 4 3.~.E R E E E E @.).N.N.A.A.N.H.5., 6 4 4 4 4 3 = 4 = 4 4 4 3 ; 4 ",
"y y r r r r r r y a y a a a d r J I.E E ` E ` ` ` ` #.].N.N.N.N.N.S.S 3 r r 4 r r r r r 7 7 w r 4 4 ",
"3 3 ; 3 3 3 3 3 3 3 3 ; 4 3 ; + h.| E ` E E E E ` ` E ,.I.F.F.F.D.S.W.C ; ; ; 4 4 4 4 4 6 r 6 7 r 4 ",
"3 3 3 3 4 4 4 4 4 4 4 4 4 w ; L M.E ` E } =.%.@.E ` E ] /.,.=.:.=.) =.N w 0 r r r r r r r a a i s r ",
"0 y 0 y a a a a a s a a d k v j.' E E #.m.O.{ =.;.E ` E =.^.^.^.^.^.^.T.H n D m n n n l z z z z z z ",
"0 7 y y 0 y 0 y a r a a d r L m.E E X.:.E E E E { ;.E E { I.&.&.&.&.&.*.U k C k l k k h h h g l z z ",
"r 0 y 0 r 0 r r r r 8 r y ; 7.| E ] =.` ` ` ` ` E O.$.E E m.U.F.F.I.I.~.h.3 8 7 7 7 8 7 9 8 8 0 9 f ",
"4 7 6 4 4 4 4 3 3 3 ; 3 3 4 d.' E %.{ ` ` E ` ` ` ` &.] E >.^.m.N.N.N.N.-.q r 0 8 y a 0 8 8 8 8 8 8 ",
"6 e 4 4 4 w 3 : 3 ; 3 4 ; p c.` ] %.` E ` I.^ E ` ` | O.E { N.=.=.=.=.=.,.V = 3 3 3 3 3 5 5 5 5 5 5 ",
"y y i y r p r r r e e r 4 K &.E X.X.` ` ` !.~ E ` ` ` $.` E /.{.[.{.{.].|.1.+ - - ; - = - % % % - % ",
"r i r u r r r r r r u r w w.X.E @.] ` E ,.OX!.Q E ` E $.] E ,.] E E E E ` Y , t 6 e 6 e 6 t 6 t 6 6 ",
"d d d d v v v v v v v v p q.[ ` &.` ` { XXoX#XZ.R ` ` ....E m.oX{.{.{.{.OXK.c b b b b b k b b k k k ",
"v v b v v b v v v i i i x a.` ] @.` E =..X^ S.s.E ` E { O.E &.B.&.=.=.=.>.( M J M M M M m m m M M M ",
"+ + X + X X X X X X X X @ p.` ] ..` E m.`.T ` E ` ` ` ] $.E #.N.&.&.&.=.&.-.i e t 1 1 : > 6 : : 5 : ",
"; ; : ; : : : : : : > : , t.E } ..` E >.oX~ E ` ` ` ` ` O.` O.oXoXXXXXXXOX}.p : 1 , 1 : , : : % > : ",
"t i i r r r t u t p t t x y.` } ..E ` ] {..X_ E ` E ` ` O.E O.$.E E E E ` E h 2 1 1 1 : 6 1 1 t e 6 ",
"p e e e e e e e 6 6 , , < ( ` { ..E ` E ,.#X X/ ` ` ` ` #.E X.).).).).)._.!.1 > 1 1 1 1 t 1 1 t e 6 ",
"t t p t e e e e 1 6 1 6 < y.' { ..E ` ` E ,.+XC.R ` ` ` X.E O.^.F.F.F.F.J.G.e & , , 1 1 t t i t i i ",
"6 e t 6 6 e 1 6 e e 1 6 < t.` ] ..E ` ` E R U.W.T ` ` ` @.E #.:.] ] ] ] ' { k 2 1 , > > : 1 6 e t t ",
"k i i k i i i i i i k i x a.` ] ..` E X.n.R F.W.R ` E } O.E &.+X+XoXoXoX+X'.c p p p p t 1 : % : % : ",
"k k k k g k i k g k g k p q.' ' $.E E m.@XD.OXC.R ` ` { X.E &.#.] { } } [ ! i i i i i i b k i i p e ",
"g g g g a a a a g t i g t 8.| ` #.] E X.XX#X.X~ ` E ` O.{ E N.^.A.F.F.S.J.r.e y y y y y i i i i k i ",
"a q y a q a q y t f a f t 3.#.` O.{ ` E O.].v.R ` ` ` &.] ` A.^.U.U.U.U.(.8.5 8 8 8 8 8 t t y i k i ",
"t 8 8 t t 8 8 8 8 t t q 9 M -.` ] %.E ` ` ).~ ` ` ` ] &.E { N.} ] } ] } | N e 8 8 y y a g g a a y y ",
"t 8 t 8 8 8 y 8 8 8 8 8 8 y s.` E &.] E ` =.Q ` ` E &.{ E O.XX{.XXXXXXXX XD q g g g f g i a a a y y ",
"g f g a g g g g k g g g f t g.[ E { %.R ` E ` ` ` ] %.` ` ,.#.' ] ] ] [ ! g g g g g z k g g k g z g ",
"z g z z z g g g g g g g g 8 2.=.E E =...E ` ` E E ;.] ` ` ).]._.).].).[.9.9 g g g g g z g z z z j g ",
"f g q g g f k q q q q 9 q 9 i V.` E E ;.$.` E } ,.X.` ` @.m.O.&.&.#.#.=.A 8 f f f f f f f f q q f f ",
"s g s s s s s s g g s s g g 9 8.#.E E E =.,.b.;.{ E ` E ~.).U.U.U.U.(.t.9 f q f f f f f f f f f h f ",
"h h h h g h h h h h h h h g s z L.E E E E E ] E E ` E =.F.=.:.:.:.>.,.A q h g f f f j g f j j j h h ",
"l h j h h h h h h h g g h g g 9 7.b.W E ` ` E ` ` ` ] ^.U.F.I.F.D.~.i.0 V j B B z j j z z z j j j j ",
"Z l z Z l l l h h h h h h g j B s k.=.W ` ` ` ` E E U.F.,.,.m.b.M.( V Z B Z Z Z z z A z V V V j V V ",
"z C Z C B C j j h j h h B B B l s l l.N.E W E W  .Q.I.N.S.A.S.S.V.G h B C C C C C Z Z Z z V V Z V B ",
"h h h g h h s s s s s s q h h h s s a e.T.D.A.Q.[.~.S.S.F.F.G.r.h a h h s C s h h h h l j B B B B B ",
"h h g h h h h h g h h h s h h s s C s 0 D 3.w.6.4.4.4.<.S S Z r s s s h s v l C l n C C B B B B B B ",
"Z Z Z Z Z Z Z Z Z Z C D Z D C D D D D D C s s s l k l k v s C l n l n l s D D C D D D Z Z B Z B Z B ",
"B j j l j l l l l h l l l l l l l l l l l l C C C l C C l l l h l s l l s l l l l C C Z C z z j C Z ",
"l l C l l l h l l l s s s s l D l l l l s l h l h l l l l j h h l l h h l l l l l C l Z Z Z Z V Z Z "
};
