/* XPM */
static char *result[] = {
/* columns rows colors chars-per-pixel */
"50 50 186 2 ",
"   c #4F3814",
".  c #44351B",
"X  c #4E3C1E",
"o  c #513A16",
"O  c #543D1D",
"+  c #4C3D23",
"@  c #443621",
"#  c #563F22",
"$  c #57401C",
"%  c #59431E",
"&  c #5F4B1C",
"*  c #4E4026",
"=  c #564021",
"-  c #5C4523",
";  c #5E4824",
":  c #53452A",
">  c #56482D",
",  c #5D4A2B",
"<  c #5E472B",
"1  c #4F4130",
"2  c #564631",
"3  c #574833",
"4  c #5C4D33",
"5  c #5D4E3A",
"6  c #5E5035",
"7  c #5F513B",
"8  c #624C25",
"9  c #634C2A",
"0  c #655025",
"q  c #64512D",
"w  c #6A542D",
"e  c #6C592E",
"r  c #685425",
"t  c #71572F",
"y  c #735D2D",
"u  c #614F32",
"i  c #635233",
"p  c #6B5533",
"a  c #6E5A32",
"s  c #63553B",
"d  c #6A5639",
"f  c #66583D",
"g  c #6D5C3C",
"h  c #725D33",
"j  c #785F35",
"k  c #725D3B",
"l  c #75602F",
"z  c #7F672F",
"x  c #7F6327",
"c  c #766133",
"v  c #7A6335",
"b  c #75613A",
"n  c #7C643A",
"m  c #7F6939",
"M  c #6B5C41",
"N  c #635740",
"B  c #715D41",
"V  c #756241",
"C  c #7A6541",
"Z  c #7E6943",
"A  c #76654A",
"S  c #7D6C4D",
"D  c #78674B",
"F  c #8A6A1F",
"G  c #A67F15",
"H  c #8B6D23",
"J  c #83662A",
"K  c #83692C",
"L  c #8E7329",
"P  c #8C7127",
"I  c #937426",
"U  c #9C7D2C",
"Y  c #9A7A25",
"T  c #826B33",
"R  c #80673E",
"E  c #82693C",
"W  c #8D7233",
"Q  c #907535",
"!  c #A07F23",
"~  c #826A41",
"^  c #806D4E",
"/  c #877148",
"(  c #937D4B",
")  c #907C46",
"_  c #A4811E",
"`  c #AF871B",
"'  c #A78014",
"]  c #BB8E12",
"[  c #BF9315",
"{  c #BE931C",
"}  c #9D8239",
"|  c #A58324",
" . c #AB8627",
".. c #AB8728",
"X. c #AE8B25",
"o. c #B08D27",
"O. c #B5912E",
"+. c #A78833",
"@. c #A68934",
"#. c #B79537",
"$. c #C19417",
"%. c #C1961B",
"&. c #C6991A",
"*. c #D09E10",
"=. c #CDA01E",
"-. c #D4A315",
";. c #D8A81A",
":. c #E3AC0C",
">. c #ECB307",
",. c #EBB30C",
"<. c #F1B504",
"1. c #F5B906",
"2. c #FABD05",
"3. c #F5BB0C",
"4. c #FABE09",
"5. c #E4AE11",
"6. c #E6B215",
"7. c #EBB614",
"8. c #EEB915",
"9. c #E9B519",
"0. c #E9B71B",
"q. c #F2BA14",
"w. c #F1BE1E",
"e. c #C59A21",
"r. c #CBA32F",
"t. c #D9AC27",
"y. c #DDB22B",
"u. c #CDA93A",
"i. c #DAB439",
"p. c #E6B525",
"a. c #E6B827",
"s. c #EDBE30",
"d. c #E5BE3C",
"f. c #E5BB33",
"g. c #FEC104",
"h. c #FDC30A",
"j. c #FFC90D",
"k. c #FFC910",
"l. c #FDC71A",
"z. c #F4C227",
"x. c #F9CA2E",
"c. c #FCC920",
"v. c #FFD42A",
"b. c #ECC239",
"n. c #F2C734",
"m. c #96814E",
"M. c #9D8A56",
"N. c #A38C4E",
"B. c #A98F44",
"V. c #B19743",
"C. c #A9975D",
"Z. c #B29C58",
"A. c #BEA95E",
"S. c #B3A263",
"D. c #BBA767",
"F. c #D9B748",
"G. c #DABB52",
"H. c #D6B957",
"J. c #E0BF4E",
"K. c #E0BE50",
"L. c #CBB561",
"P. c #D6BE6A",
"I. c #CFBD76",
"U. c #D0BC74",
"Y. c #E6C148",
"T. c #E9C54B",
"R. c #F5CC49",
"E. c #E2C55A",
"W. c #E5C659",
"Q. c #F3D155",
"!. c #DCC46D",
"~. c #D9C471",
"^. c #DFCC7A",
"/. c #E3C867",
"(. c #E0CD7E",
"). c #EFD775",
"_. c #E9D57D",
"`. c #D8C780",
"'. c #DECF89",
"]. c #DFCE83",
"[. c #E2D186",
"{. c #E6D88F",
"}. c #ECD888",
"|. c #F4DF86",
" X c #FCE78B",
".X c #FEEB8C",
/* pixels */
"# # # # # # # # # # # O O O O O O O O O O O # O O # # O # # # O O O # O O O O O O O O o O O o O o O ",
"# # # = < # # < # # # O # O O - # - # # # 8 # 8 # # 8 8 # # 8 # # # - # O # # # O # # # # # # # # # ",
"# O # # # # # # # O O O O O O O O O O O O O O O # O # O O # # 8 - - - 8 8 8 - < # 8 8 - # 8 8 # # # ",
"- < - - < = < 9 - 8 % O O % % O O % % % % O 8 # 8 O 8 O 8 O 8 # - - - - - - - - 8 - 8 - 8 8 # 8 8 8 ",
"- < 8 - - - < 8 - 8 # # - % - - 8 8 - & 8 - - & 8 # & - - O - % % % - O % % % % # - % & 8 - & 8 # 8 ",
"8 8 - 8 8 8 8 - 8 8 8 8 8 8 - 8 O 8 - 8 % 8 - 8 8 8 8 - 8 8 & 8 8 8 8 8 8 8 9 8 8 9 8 8 8 8 8 8 8 9 ",
"9 9 9 0 9 8 9 9 8 9 9 8 8 8 8 8 8 9 8 8 8 8 8 8 8 8 0 0 9 8 8 8 8 8 8 8 9 8 9 8 8 8 8 8 8 8 8 8 8 8 ",
"8 8 8 & 8 8 8 8 8 8 & 8 % 8 8 - 8 & 8 - 8 % 8 - - - - - 8 & - 8 & % 8 8 & & % - - % - - % % % - - # ",
"8 8 8 9 8 0 0 0 8 8 8 8 8 8 8 8 8 8 8 8 8 8 8 8 ; ; 8 8 8 8 8 8 8 8 8 8 8 8 8 - 8 8 8 8 8 8 8 9 8 8 ",
"j j j j j h h h t j h t t j t j h p J :.<.3.3.3.3.2.1.<.*.j w w t t t t t t t t a a j j j k j j j j ",
"8 8 8 8 0 0 8 8 8 9 9 9 9 9 9 9 9 8 e /.H.@.I Y I F F /.).8 O % % % # # # - % 8 - 8 8 8 9 9 9 9 0 0 ",
"$ o $ O % O % O % % % % % % O # % O 8 F.r.` G G G G G f.J.O   o   o o                       o o o O ",
"r w p p w p p t t e t d t d t t a p j x.x.w.6.6.9.6.5.l.s.j i p p p 9 p p 9 9 9 9 9 9 8 8 9 8 8 9 8 ",
"a a a a a t k d d h d g k k d k k a C (.L.E R n R R k U.}.k d t t t p p p p p p i p p 9 i i p 9 9 p ",
"8 8 8 8 9 8 8 8 8 8 8 # - < < 9 8 < t 3.2.2.2.2.2.2.4.2.9.p 8 9 < < < - < < < - < < 8 9 9 9 9 8 9 9 ",
"9 9 9 9 9 9 9 9 9 9 9 9 9 9 9 9 u < j N.j j j j t j t J D.d 9 u 9 p p p w p p p p p p p p d p d d d ",
"h h j k k k j k R B B R R B R B k B E ;.*.-.-.-.-.-.*.-.t.~ k C n V C C C Z Z ~ ~ ~ Z Z C Z C C C m ",
"a a a t t a t t t t k B k k k k k d R R.d.e.e.e.e.e.e.y.T.k a k h b b n b n n n C C m C n n n n b c ",
"p a a p p t t p p 9 u 9 9 9 u 9 9 9 j !.B.J J J J J J } ~.w 9 8 , 0 0 , 9 0 0 q w 0 q w w r w w r e ",
"9 8 8 - 8 8 < 8 < < 9 9 9 9 9 9 p 9 y ,.4.2.1.1.2.4.1.h.0.h w p w p e e e e t a t p a a e a a a a a ",
"8 , 8 , < 9 - < < < - - < = < 8 - - 9 U.( 9 9 9 8 8 - S.[.8 8 8 0 , q 8 8 8 & 0 8 8 8 8 8 8 ; 0 0 8 ",
"p p p p u p p p t u p p p u i i p u j 9.>.,.,.:.,.,.,.>.p.p , 9 , , 8 8 8 8 > > - - ; ; ; ; ; ; ; ; ",
"d p d d d p p u d d d d d d d d d s k K.G.#.U U U +.+.F./.d u i 6 q q 6 i i 6 e i i q i i q q i q q ",
"B B B g B B B B B B B B B B B B B B ~ G.u.O. . . . . .u.G.V B V V V V V V b V b V V V V V V V V V V ",
"k B g k g g k g g B B A A A A A D A / z.l.8.8.8.7.7.7.l.s.S D S S S S S S S S S S S S S S S S S S S ",
"+ X X X + X X X X + : : + # + + X . : [.S., > > , i > C.{.4 4 , 6 > 6 > 4 6 6 e f 6 e 6 6 q q 4 6 , ",
"< 2 , , , < 2 < 2 9 u u 5 3 : : + @ % ,.g.1.1.1.1.1.4.1.6.i > : * : * : : > > > 4 4 > 6 6 q > 6 , > ",
"p p d p i i d d s u 2 : : 2 3 3 4 3 f ~.N.e e r 8 & & L.~.. . + * * : : > > 6 6 6 f f s f 6 q 6 6 q ",
"i 6 q 6 q 4 6 q 4 4 > 2 3 3 3 5 5 3 g i.&.[ { [ [ [ ] y.i.2 1 > > : : * * * * * * * : : > 6 6 6 i 6 ",
"i q q q i q q 4 4 i s s 5 5 5 3 2 1 q d.y.{ [ { { &.{ y.Y.M N s 7 6 3 > * * * * * * * : > > 4 6 6 6 ",
"i i i q i q 6 q 6 6 4 3 5 5 5 5 7 7 M ~.Z.n v b b b a A.^.7 4 5 7 6 7 7 6 N N N f f f 6 6 6 > : : > ",
"g b b g g g g g k M M M M M M N M s b q.j.j.j.j.j.j.j.j.0.V M M M g M g f f f M g g f g f f g f f e ",
"l b b c b b b b b b b b b g g g g g b ].D.Z V V Z Z Z M.'.b g b g g b g g g a a g g g g g g g g b M ",
"a a h h c g e c g g g e l f c g g a m z.8.6.5.:.5.5.5.:.f.c e g g a a g f e f e e e f e e e g l a a ",
"h e e h e c h e l e l f e e e e a e c W.i.X.| | _ _ X.Q.E.g e e e e e e e i e e e e e e e e e e e a ",
"e e e e e e e e e e e e e e e e a r c G.#.| | _ _ _ | J.H.e e e e e e e e e e e e e e e e e e e a a ",
"e e e e e e e e e e y e e e e c e e z 0.3.,.,.,.6.,.,.h.y.c e c h h y l g y y a h h c c b c b l b c ",
"c c c c c b b c c l e l c c l c l l m ~.) c b c c b c S.(.c c c c c c c c c c c c c c c c c v b v v ",
"m m c c c c c c c l l l l l e l l e z 3.h.h.h.h.j.h.h.g.6.c l l l y l y y l l l l l l c c c c c v v ",
"h h h y h e y e y y r y y e e y l r z !.V.P L L P L H } ~.z y y y y y y y y y y l l l l l l z c v l ",
"v h j v j j c j c l c l l l l l l y K d.t.] %.%.%.%.%.&.Y.v y j y l y y l l y j l l l l l l z l l l ",
"v v v v v v v v c c c l l l l l v y T n.x.;.-.-.-.-.-.z.b.T y j x y l j l l l l l l l l c l l c c c ",
"v v v v v j v j m c c z l l c z v j T _.L.W W Q W W W P._.E v v v v v v T v v T m m z m m m m m T n ",
"v n v v v v v v c c m c v m c m v j W q.2.4.4.h.j.j.h.g.7.E v T E E R T R T E E m m m m m m m m T E ",
"n R T v T v v v v v n n m m v m R j W |..X.X X X X X X.X}.R j v v v v T n n R v n n n n m m m E T R ",
"c c j j l j j j c j v j c c b v j j j ( m.m.m.( ( m.m.m.) j y j j j j j j j j j v v v n m c v m v R ",
"v v v v c v v v v v j n v n v v R j j h h t t h t h t t t j j j j j h j j j n j n j n n m n n m R R ",
"E E E R E E E E R R ~ m ~ R R ~ ~ R R ~ ~ ~ ~ ~ E ~ E ~ R R R R n R n n R R C n R ~ ~ m ~ ~ ~ ~ E E ",
"v T n v n R v j n n R R v n R v R v n n v n R v v R v R R R R j n j n v n n v n n v R v R R R R n E ",
"n n n v n j j n j n j R v n n n v v v n n v n v R v n v v v v v v n v n j n n v j n v R R v n T v E "
};
