/* XPM */
static char *result[] = {
/* columns rows colors chars-per-pixel */
"50 50 194 2 ",
"   c #432D0A",
".  c #4D3614",
"X  c #4F3914",
"o  c #4E3C1E",
"O  c #513A16",
"+  c #543D1C",
"@  c #4B3A23",
"#  c #553E21",
"$  c #56401D",
"%  c #5A431E",
"&  c #5B481F",
"*  c #4D402E",
"=  c #574021",
"-  c #5C4523",
";  c #5E4824",
":  c #52442B",
">  c #5D462A",
",  c #5D4B2B",
"<  c #57492D",
"1  c #5F502E",
"2  c #5C4D32",
"3  c #5A4D39",
"4  c #574C39",
"5  c #5F5134",
"6  c #5E523C",
"7  c #624C25",
"8  c #634D2A",
"9  c #655027",
"0  c #6A5527",
"q  c #65512C",
"w  c #6A542D",
"e  c #6D592E",
"r  c #71572F",
"t  c #725C2D",
"y  c #614F32",
"u  c #645332",
"i  c #6A5534",
"p  c #6E5A33",
"a  c #63553B",
"s  c #6A553A",
"d  c #6E5C3B",
"f  c #67593A",
"g  c #725C34",
"h  c #785F37",
"j  c #725D3C",
"k  c #715732",
"l  c #76602F",
"z  c #7A6222",
"x  c #6F603B",
"c  c #766133",
"v  c #7A6335",
"b  c #7F6835",
"n  c #74613B",
"m  c #7D6539",
"M  c #7E683A",
"N  c #695A41",
"B  c #715D40",
"V  c #705E48",
"C  c #6F6045",
"Z  c #756341",
"A  c #7C6844",
"S  c #7D6B4A",
"D  c #776345",
"F  c #82692D",
"G  c #8D732E",
"H  c #9F7A22",
"J  c #816636",
"K  c #836A36",
"L  c #80673C",
"P  c #82693C",
"I  c #8E7533",
"U  c #82703F",
"Y  c #977D3B",
"T  c #967A39",
"R  c #836B41",
"E  c #837144",
"W  c #87754C",
"Q  c #8A754A",
"!  c #8E7642",
"~  c #817157",
"^  c #B28F2C",
"/  c #B59027",
"(  c #DBAA18",
")  c #F8B700",
"_  c #F7BC02",
"`  c #FABE00",
"'  c #F8BC08",
"]  c #F6B408",
"[  c #F5B41D",
"{  c #F4B313",
"}  c #C59F25",
"|  c #CEA936",
" . c #DFB836",
".. c #DDB63B",
"X. c #E8B928",
"o. c #F5B92A",
"O. c #E1B935",
"+. c #F5BB3A",
"@. c #FBC101",
"#. c #FAC20B",
"$. c #FFC90D",
"%. c #FAC413",
"&. c #FFC912",
"*. c #F7C61B",
"=. c #F9C61C",
"-. c #FBC91D",
";. c #F9C623",
":. c #F7C925",
">. c #FACA23",
",. c #F7C72C",
"<. c #F7C92B",
"1. c #FBCC2B",
"2. c #FFD227",
"3. c #FFD22C",
"4. c #F7C636",
"5. c #F7CA34",
"6. c #FBCD33",
"7. c #F7C038",
"8. c #F5CA3B",
"9. c #FACF3B",
"0. c #FCD036",
"q. c #FBD23D",
"w. c #93814D",
"e. c #958352",
"r. c #9C8955",
"t. c #9C8B5C",
"y. c #A18843",
"u. c #B2974C",
"i. c #B29647",
"p. c #A09057",
"a. c #A6945B",
"s. c #BBA25B",
"d. c #BDA95F",
"f. c #B09D63",
"g. c #B5A46B",
"h. c #C4A64D",
"j. c #C7A84A",
"k. c #D7B54C",
"l. c #C2AA5C",
"z. c #D3B652",
"x. c #DCBA52",
"c. c #E3BE46",
"v. c #F4BD41",
"b. c #E3BE50",
"n. c #C2A960",
"m. c #DEC156",
"M. c #E6C34C",
"N. c #FBCF41",
"B. c #F9CE4F",
"V. c #FBD342",
"C. c #FFDD44",
"Z. c #FBD64C",
"A. c #FEDB4D",
"S. c #E0C15E",
"D. c #F6C559",
"F. c #F1CE51",
"G. c #FBD651",
"H. c #FDDB54",
"J. c #FCD65A",
"K. c #FCDB5A",
"L. c #FFE152",
"P. c #FFE45A",
"I. c #DEC164",
"U. c #DFC87B",
"Y. c #E0C96F",
"T. c #E2C964",
"R. c #F7C962",
"E. c #FDDD63",
"W. c #FCDF6C",
"Q. c #F8D565",
"!. c #E5D27A",
"~. c #F7D073",
"^. c #FADD7C",
"/. c #F9DA74",
"(. c #FFE163",
"). c #FFE865",
"_. c #FDE26D",
"`. c #FDE274",
"'. c #FFE877",
"]. c #FDE47B",
"[. c #FFED7D",
"{. c #FADF8B",
"}. c #F9DC83",
"|. c #EAD988",
" X c #FAE482",
".X c #FDE985",
"XX c #FAE38C",
"oX c #FDEA8C",
"OX c #FFF289",
"+X c #FEEC94",
"@X c #FDEE9A",
"#X c #F9E696",
"$X c #FEF09C",
"%X c #FFF4A2",
/* pixels */
"# + # # # # # # # # # # # # + + + + + + # + + # # # # # # # + + # + + + + + + + + + + + O O + + O + ",
"# # # # # # # # # # 8 # # # # # + # % # = % = - - - - - - % % # # # # # # # + # # # + + # + O + + O ",
"+ # + # # # # # # # # # # + + + + + + # + + + + + # % # # - > - # 7 - - 7 # 7 > - > 7 8 - 8 8 > > 7 ",
"- - - > 7 # 7 8 7 - > 7 8 # # % % % - + % - - % - % - % - - - - 7 # 7 7 7 7 > - - 7 - - > 8 8 8 8 8 ",
"> - - 7 > > - 7 ; ; 7 > 7 - - - - - % - 7 - % - 7 - 7 - - % % % + % - % % - & - - 7 7 - - - - 7 - - ",
"- 7 - 7 - 7 7 - - 7 - ; - & 7 7 7 - - 7 % 7 7 7 % 7 % - 7 - 7 7 7 7 7 7 7 7 7 7 7 7 7 7 7 7 - > 7 > ",
"w w 9 9 8 8 8 8 7 0 7 0 7 8 7 7 7 7 9 9 7 7 9 9 0 7 9 9 0 7 9 9 0 9 7 7 7 7 7 7 7 7 7 7 7 7 8 8 8 8 ",
"7 7 ; 7 7 7 7 7 ; 7 7 ; ; 7 & 7 7 % 7 % 7 ; % % + % % + # % + + + % 7 & & & & % % % % % % % % % - - ",
"7 9 9 9 9 0 9 9 9 7 7 9 7 7 7 7 7 7 7 7 7 % e K G G I G G I e.e.E , % 7 7 ; 7 7 7 7 7 8 8 8 w y 8 > ",
"r k g k g c g g g h g t g g g g g g g i e i.F.H.H.J.H.K.'.[.(.L.(.!.t.8 g g g g g h h h h h j h k L ",
"7 9 7 7 7 7 7 7 9 7 9 9 7 8 7 8 8 9 7 u z.L.H.Z.G.G.Z.].Z._ _ _ ` $.P.g.+ 7 ; 7 8 8 8 8 8 w y 8 8 8 ",
"O O + O O $ O + + + % % % % % - % % $ | A.V.V.Z.V.V..X6.` @.@.@.@._ _ C.p.  O X X O O O O . . . . . ",
"r r w w w w w i r e i i k i k i k 8 u.).J.K.K.K.K.].0._ @.@.@.@.@.@.` _ H.Q = 8 7 8 7 7 7 8 8 8 8 > ",
"k r k i i i k i k k p k k j s k s Q q.6.0.0.0.6.V.K.@.@.@.` ` ` ` ` @.` ` T.s y u i i y w i y w 8 w ",
"; ; 7 ; 7 7 8 7 7 7 > 7 7 > > 8 - j._.E.E.E.E.E..X*.` @.` ;.N.N.q.>.` #.' 2.r.# 8 > > 8 8 u i q k i ",
"7 8 8 8 8 8 8 8 8 8 8 8 8 8 8 > m 9.1.1.1.1.1.0.Z.` @.@.5.5.#.@.#.0.1.` @.@.b.s s k k s p p g p k k ",
"k k k g g g g g g j k j h B L s s.[.].].].].].oX>.` ` ,.:.` @.@.@._ 1.:.@.@.3.t.n A A v n M M M M M ",
"e e p r p e k k k g k k k j j s X.%.%.%.%.%.-.Z.@.@.%.5.` @.@.` @.@.@.6.#._ $.d.d m m v v v n b b b ",
"e p k i e i e i k i r w i w > R +X@X@X+X+X+X$XZ.` ` 5.#.` @.' >.#.@.` %.1.@.@.M.f 0 q w e 0 e e e e ",
"9 9 9 9 9 7 8 > 7 7 7 > 8 8 8 H $.' #.' #.@.q.:.` %.:.` @.@.{ }.-.` @.@.5.#.@.0.W w g p e e e e e e ",
"w 8 u 8 8 , 8 8 > 8 ; > 7 > @ f.[.^.].`.`.].`.%.` ;.%.` @.@.[ XX6.@.@._ *.>.@.-.! - 7 7 9 9 9 9 9 9 ",
"i p p i i i u i i u i u u u y c.H.Z.Z.H.G.H.E.@.` <.@.@.@.] ~.%X+X1.@.@.#.:.@.&.u.= ; , - - & & & & ",
"s i s s s i i s i i i s s s p X.&.%.%.%.%.;.V.@.#.<.@.@.` +.$X].@XJ.` @.@.:.@.@.j.3 q q q q u e q q ",
"j B j j j B B B B j B N B V S #X$X@X$X$X@X%XZ.` %.>.@.@.) D..X' 7.>.@.@.@.:.#.@.x.D Z Z Z Z n Z n n ",
"Z B B d B B d B d d N d B V ! %.@.#.#.' ` >.q.` *.*.` @.) D.[.` @.@.@.@.@.*.%.@.M.S S S S A A n S S ",
"# + = + # o o o + o o o # @ m (.E.K.E.E.K.`.q._ *.%.@.@.` v.@XV._ @.@._ ` :.%.@...a , 1 1 1 1 1 , , ",
", > > ; , , < , > , , , 2 4 E `.`.`.`.`.`..X9._ *.#.` ` @.[ {.%XZ.@.@.@.@.=.*.@. .6 < 1 < 1 1 , , , ",
"u f f f s i f u i a u a u @ z #.` ` ` ` ` =.0._ *.%.@.@.@.` o.#X%X1.` @.` =.%.@. .N 5 1 1 1 1 1 q q ",
"u f u u u u q u 5 1 u y u : D +X+X+X+X+X+X$XV.` *.%.` @.@.@.` o.#X(._ @.@.;.&.@. .6 5 6 5 u 1 1 u 5 ",
"u u p u u u u u q 1 , 5 u 3 Z 5.1.1.1.6.1.V.q.` *.*.@.@.@.` @.) R.`.@.@._ *.&.@...4 1 6 5 u x x x p ",
"e u u u u q 1 u q 5 u 5 2 4 f 8.3.6.6.6.1.V.V.` %.:.` @.` +.H.) ~.`.` @.@.:.$.@.k.4 < : & 1 1 1 q u ",
"x x p n d x d d x d d d d d Z |.+X#XoXoXoX$XK.` #.:.@.@.) D.%X^.@XZ.` @.` :.@.@.s.6 f f u 1 1 , , ; ",
"n n n n x x c x l x x x n d d ( @.` ` ` ` @.V.#.` 1.@.@.@.[ }.$X.X%.@.@.#.:.` $.s.a n x x n C x p f ",
"c c x l t x l x x l l x x c q d.OX.X.X.X.X.X.X#.` :.%.` @.@.[ XX3._ @._ *.:.) -.r.q p p p d p d d d ",
"e x e l e e x l e x e l l t q r.q.6.9.9.9.6.H.1._ %.1.@.@.@.{ ^.-.` @.@.<.#.` 4.E 9 i e e i p p x x ",
"e e e e e e e e e e e e e e 0 F q.q.q.q.V.0.K.Z.@.@.1.#.@._ ' *.#.@._ %.<.@.` b.n e e p l g x x p p ",
"e e t e e e e e e e e e e e t p Y.'._._.W.`.W.E.@.@.%.5.@.@.@.@.@.@._ 5.#.@.$.n.e c c x x x e l x p ",
"x l c c c c n c c c c c l x l i / >.=.;.>.>.=.K.1._ @.<.:.@.@.@.@._ 5.:.@.@.V.t.e b c b v v n n v v ",
"c c c n n b c c c c l c l l l e E ].`.].`.`.`.].G.@.@._ 5.0.#.@.#.8.1.@.%.#.m.c l b b l c c c b m v ",
"c c c c c c c t t e t e e t 0 l 9 } 2.1.1.>.1.>._.*.@.@.@.*.V.8.9.*.@.#.@.5.a.e l l c l c t l l l l ",
"g v v g c c h h c c c c c l t c t U `.E.E.E.E.E.E.J.` @.@.` @.@.@.` @.@.` I.c l l l l l l l l l l l ",
"v v v m v c c v v v c v v c v l l t / C.N.9.q.V.q.].V.` #.@.@.@.@.` #.) B.w.t v l l l l v v b b b l ",
"m m m v J v v v v v v v l h l v l v g z.L.G.H.G.H.Z.`.8.` ` @.@.@.` ) Z.f.t J m b b b b b b b b m b ",
"J J m J J v m v v v v v v v F v v v b v z.L.H.G.G.Z.H.^.G.' ) ) ` %.J.g.m K P L M U P U P K K K K K ",
"P m P m J J m J J J b c J J J m J J L m h i.M.G.H.H.A.H.'..XE.G.Q.U.t.t J L M J J L L L P K P K K K ",
"v v b c v h c v h t h h h c v v h v h h g k h T Y Y Y Y T ! e.r.Q h r v m h h m m v m m m b J b J J ",
"v v c v v v c v c v v v h m v v h h h h c v m g k k r k k k r r k h J h h h h h M m L m L J m J b J ",
"J P L K P P K P P K P P L L L R R L R R P P P R R R R P R L m L L h L L L L R R R R R R P J K J P K ",
"J m m m J m m m v m v m m m M m m m m v m m v m m m m M m m m v m v v J m m v m m L L L J M M b m P ",
"J m m M m m m m m v m h h h m m m m m m v m h m m m v J m m v h h m m v h m m m m J M L P P P P K P "
};
