/* XPM */
static char *result[] = {
/* columns rows colors chars-per-pixel */
"50 50 200 2 ",
"   c #442E10",
".  c #4D3615",
"X  c #4F3816",
"o  c #4D3B1C",
"O  c #483419",
"+  c #533C1C",
"@  c #553E16",
"#  c #553E21",
"$  c #523F28",
"%  c #583F24",
"&  c #56401C",
"*  c #59421F",
"=  c #6C521E",
"-  c #72571E",
";  c #564121",
":  c #5B4524",
">  c #5E4825",
",  c #5B4629",
"<  c #5E4B2A",
"1  c #5B4D33",
"2  c #624C25",
"3  c #624C2A",
"4  c #665026",
"5  c #6C5425",
"6  c #65522C",
"7  c #6A542D",
"8  c #6D592E",
"9  c #725C2E",
"0  c #70562E",
"q  c #624E34",
"w  c #655432",
"e  c #6A5532",
"r  c #675930",
"t  c #6D5A34",
"y  c #61513A",
"u  c #6E5C3A",
"i  c #6A5739",
"p  c #735D33",
"a  c #725E3B",
"s  c #785F35",
"d  c #78622F",
"f  c #766134",
"g  c #7B6335",
"h  c #7E6836",
"j  c #75623B",
"k  c #7D6539",
"l  c #7E693B",
"z  c #6A5A43",
"x  c #756242",
"c  c #7B6843",
"v  c #776C4B",
"b  c #856929",
"n  c #967526",
"m  c #816636",
"M  c #816937",
"N  c #81673C",
"B  c #826A3B",
"V  c #886D3E",
"C  c #8D7539",
"Z  c #A07C21",
"A  c #826A41",
"S  c #8B6F40",
"D  c #8A7242",
"F  c #8E7942",
"G  c #84744B",
"H  c #8B7A4F",
"J  c #837147",
"K  c #887650",
"L  c #9E8132",
"P  c #9E843E",
"I  c #AE8B2E",
"U  c #B58D21",
"Y  c #A4863E",
"T  c #B89634",
"R  c #CB9F1E",
"E  c #F6B500",
"W  c #F8B600",
"Q  c #F7B800",
"!  c #FABE00",
"~  c #F9BE0B",
"^  c #F7B60E",
"/  c #F4AB15",
"(  c #F3AD1D",
")  c #F3A515",
"_  c #F6B313",
"`  c #F8B619",
"'  c #CFAC3D",
"]  c #D4AF3D",
"[  c #F4AE20",
"{  c #F3AC2B",
"}  c #E2BA36",
"|  c #F8BF36",
" . c #F2B13A",
".. c #FBC101",
"X. c #FBC30B",
"o. c #FFCA0D",
"O. c #FAC413",
"+. c #FFC916",
"@. c #F7C119",
"#. c #FAC61A",
"$. c #FCCA1C",
"%. c #FBC623",
"&. c #FACA24",
"*. c #F5C62C",
"=. c #FBC62B",
"-. c #FACB2B",
";. c #FFD32D",
":. c #EFC537",
">. c #FFC732",
",. c #F7CA34",
"<. c #FACD33",
"1. c #FACD3C",
"2. c #F7CD3D",
"3. c #FDD135",
"4. c #FBD23B",
"5. c #FFDA38",
"6. c #8D805B",
"7. c #988754",
"8. c #A1905E",
"9. c #BEA148",
"0. c #988A61",
"q. c #A08F61",
"w. c #A99760",
"e. c #AD9D69",
"r. c #A79561",
"t. c #B19E63",
"y. c #AEA066",
"u. c #B4A36A",
"i. c #B6A267",
"p. c #B9AA73",
"a. c #C8AA4C",
"s. c #C9AD54",
"d. c #E0BC42",
"f. c #F3B443",
"g. c #C0AC6F",
"h. c #C0B06B",
"j. c #D3BD6D",
"k. c #C4B375",
"l. c #C5B579",
"z. c #C9B875",
"x. c #D4BF70",
"c. c #DFC153",
"v. c #DFC158",
"b. c #F9CE44",
"n. c #F1CC4D",
"m. c #FBD343",
"M. c #FFDC44",
"N. c #FBD44C",
"B. c #FFDC4C",
"V. c #F6D148",
"C. c #F7C656",
"Z. c #F1CF54",
"A. c #F6C85A",
"S. c #FBD553",
"D. c #FDDB53",
"F. c #FCDB5A",
"G. c #F4D25E",
"H. c #E6C75A",
"J. c #FFE25B",
"K. c #DFCC7F",
"L. c #D4C47E",
"P. c #E5CA6E",
"I. c #E0C765",
"U. c #F7C868",
"Y. c #F3C964",
"T. c #EFD266",
"R. c #FBDE64",
"E. c #FCDD6A",
"W. c #F6D267",
"Q. c #E1CE7A",
"!. c #F7D479",
"~. c #FBD97E",
"^. c #F6D678",
"/. c #FDE164",
"(. c #FCE16C",
"). c #FBE273",
"_. c #FFE872",
"`. c #FBE47C",
"'. c #FEE87E",
"]. c #DDCB84",
"[. c #E6D485",
"{. c #EAD884",
"}. c #EAD789",
"|. c #FADB86",
" X c #F6DE8B",
".X c #FBE683",
"XX c #FEEA84",
"oX c #FCE58B",
"OX c #FDEB8C",
"+X c #F6E183",
"@X c #FFF38B",
"#X c #FDEC94",
"$X c #FCED9C",
"%X c #FFF29D",
"&X c #FFF392",
"*X c #FDEFA1",
"=X c #FEF2A3",
"-X c #FFFAA6",
";X c #FEF3A9",
":X c #FFFDAF",
/* pixels */
"# + # # # % # # + # # # % % % % % + + + + + + % * + ; ; ; % + + + + + + + + o + + + + + + + + @ + + ",
"# # # # # # # # # # # # # % : % % % ; + : ; ; ; # : ; # + + + ; : : % + % + # + + X + X X X + + + + ",
"o o o o + + + + + # # # # # # % % + + @ . O ; 4 4 5 5 8 a a a : + + < 3 2 : 2 2 2 2 2 % % 2 2 + * X ",
": : % 2 % 2 % % : : : : : , 2 % > : # $ M 9.H.n.V.E..XoX`.`.|.[.p.c + ; 2 > 3 3 3 3 4 2 2 % 2 2 2 2 ",
"2 2 2 2 3 3 2 % : > > , > > > > 2 # 5 ' D.B.m.(.OX(.4.O.....X.$.M.`.l.w + 2 ; > % % % 2 % : : % % % ",
"% : % * % 2 % 2 > 2 > > > > > 2 + F E.J.F.F.).).<.! ! ..........! ! M.+XJ & 3 < 3 2 2 2 2 2 3 2 2 2 ",
"2 2 2 2 2 2 4 7 4 4 3 7 3 3 4 < P 3.3.1.-.(.`.X.! ....! ............! $.'.H & 6 3 4 3 2 2 3 3 2 2 3 ",
"2 2 2 2 2 2 2 2 2 2 2 2 2 2 & C _.E.).E.#X(.....................! ..! ! X.`.l + % + % % + # + % + + ",
"2 2 4 4 2 4 2 2 2 2 4 4 4 2 f *.$.$.O.3.)...! ........! ! ! ! ! ! ......! O.{.e > 3 3 3 3 3 3 4 3 2 ",
"0 p p p p p p p p p p p p e j.@X.XOXOX#X$...........~ *.1.m.1.*.X.! ....X.! 5.l.e x N a N x x a s a ",
": 2 2 : 2 2 2 2 2 2 2 2 : n o.~ X.! S.N.! ~ ....! ,.V.<.#.O.$.<.N.-.! ..! ..! /.K % 3 e e e e e e e ",
"& * @ @ @ @ @ + @ @ @ @ ; Q.XXXX.XXX`.........! V.-...! ! ! ! ! ..4.4.......! $.z.  . . . . . . . . ",
"7 7 0 7 7 e e e 0 e e 3 n m.b.1.<.`.m.! ....! b.&.! ..............! <.3.! ....! S.G % 2 2 > , % % : ",
"6 7 q 7 7 6 e 0 t 0 0 y ] ;.&.&.&./.X.....! ,.*.! ..........! ......! 1.&.! ..~ &.k.% 4 3 3 2 3 2 2 ",
"3 3 2 2 3 3 2 % 2 2 % p #X%X$X$X;XF.! ..! O.4.! ..! ! ..~ *.$.! ........m...! ....Y.x 3 e 7 e 6 e q ",
"7 6 6 7 3 4 2 2 2 3 , Z o.~ X.! F.-...X.! 1.O.! ....! ..(  X/.! ......! $.<.! ..! m.q.0 j k a j s 0 ",
"8 8 8 8 0 0 e 0 0 9 e s.B.N.N.N.(.X.....O.,.........! ..) |./.! ..........2.....Q $.z.j J l l l f f ",
"4 5 5 7 8 7 8 8 8 7 p {.%X#X#X=X/.! X.! *.#.........! ( W.#X#XE.X.....Q ..&.&.......P.c l l l l l l ",
"2 4 5 6 7 7 7 0 0 e b ~ ....! <.N.Q ..! ,...........^ Y.=X*X%X;X/.........X.<.....! G.G 5 d 9 8 8 8 ",
"5 7 5 7 7 7 7 6 7 < C F.S.D.N.).<.! ! X.,.....! ....{ oX#XN.C.$XD.Q ........<.X.....m.7.4 8 8 7 8 6 ",
"8 e 7 8 e 7 7 6 6 : 7.%X#X#X#X$X#.....@.&.........Q  .$X(.! E | #...........,.O...! 5.8.> 8 8 r 8 8 ",
"t t t t t t t i p y U ..! ! ! S.O.....*.#.! ......!  .%X/.! ..! ............&.#...Q ;.8.& 2 : : > < ",
"p i u u i p i i t y a.B.N.N.N.).X...! &.O.....! ..! { oX%X4.................$.&...Q $.i.& < < < < < ",
"a a u u a u a a j i z.-X$X*X;XXXX...! ,.O.........../ Y.=X$X/.X.....Q ......@.&.! ! $.p.r x j j a u ",
"x a a x a a x x x z R ....X.X.F.X.....,.X.....! ......( ^.%X=X.XX...........@.&.....+.k.x c c x x x ",
"+ ; ; ; ; o ; o ; O T 5.4.3.<.E.X.....*.O.! ............_ A.#X=XR.........! #.#.....$.u.; < , ; ; , ",
"< < 6 6 < < , , < ; p.:X*X*X;XOX......-.O.................W f.#X.XX.......! %.$...! &.w.O < , , > , ",
"w w w 6 w w y r t y I +.O.O.~ F.$.! ! -.#...........! ~ ....( ~.OXX.........*.#...Q -.e., w w w w < ",
"r r u r r r w w r 1 L ;.-.-.&./.&.! ..O.-.....! ! ..( ~.4.! { oXXX........! ,.O...! 3.0.1 w 1 1 1 , ",
"r r r r w w w r r 6 H ;X=X=X;X;X,.....X.,.........W f.=X#XE.~.;X(.! ........,.....Q S.6.w u r r 6 w ",
"r r r r r r w w r 1 f @.o.O.X.3.N.! ..! <.X.! ......( ^.=X$X%X$X&.! ....! O.-.! ! ! T.v r u u u u u ",
"u u j j u j u u a a p } 3.<.-.m.(.! ..! &.&.! ......! ` A.OXOX3.! ......! *.$.! ..X.j.< w r u u x u ",
"j j j j j j j j j h u p.-X%X%X=X#XX.! ..X.4.......! ....) |.R.! ! ......~ 2.....! &.e.o : ; & ; , 1 ",
"f f p p f f f j f j r L o.X.X.! m.4.! ....,.#...........( ~.F.! ......! *.&.! ..! N.0.w t 1 , ; o   ",
"9 9 r 9 r 9 r 9 p 9 r d n.J.S.N.(.R.! ....X.m.............X.X.........~ m...! ..! P.x a a i w w w 6 ",
"r 8 r r 8 8 9 8 r r 8 4 p.XX`.`.`..XO.....! &.4.! ........! ........! b.O.! ..! =.p.3 e r t i u t 6 ",
"r 8 r 8 8 r r r 8 8 8 r n ..! ! ! 1.S.! ....! 3.4.! ............! ! b.&.! ..! W T.G r f t t t t t a ",
"9 d f 9 9 d f f f f f g 8 j.&XOXOX#X#XO.......! <.V.X.! ! ! ! ! @.V.&.! ....! =.z.r l f j f p f f j ",
"f f f f f f f f g j g g p F 3.&.&.$.m.F.! ......! $.V.V.,.=.,.b.V.O.! ..! ..! ^.G f f f g f f j f f ",
"9 9 9 9 9 9 9 f f f p f f 7 T J.F.F.F.=X,.! ..~ ......O.-.<.-.O.! ! ......Q S.e.5 g f h g g g f f f ",
"f p f p p p p p f f g g p p x I.B.N.N.m.).#.! ..! ....! ! ! ! ! ..! ! X.! -.L.9 d g d d g d g d g f ",
"k g g g g g g k g g g g k g p b :.B.m.m.).#XO.! ......! ..............E =.[.M d h d g d h g h h h h ",
"g k l k m k k g g g g g g g g p K G.B.S.m.N..X=.! ..! ......! ......E >.}.D d M h h h h l B l B B B ",
"g k M N N M M k M k N g g g g m s M d.F.D.S.E..XS.~ ! ! ! ! ! ! ! ` E.].D g V B M M M C B l l C B V ",
"g g m k g m N M M N N k N g g g m k k T n.B.B.F.OXXXR.1.=.` =.b.E.}.e.g m N N M M M M M C h M M M M ",
"g g g g d s g g g g g g g s s g s g s a B 7.s.d.d.c.Q.Q.].].].l.q.k 0 N k s m m m m m m g h M h m g ",
"g g g g g g g g g g g g g g g g s s s m s p 0 a s s 9 9 s s p 0 0 s N k N N m m m m M m M V V V V m ",
"m N g g k k k N M k M N N M B M N A A A N A N A A N A N s k k N A N A N A V m m m M B V V V D D F V ",
"M g m g g g M k k N g k k k g k s k k k k k k k k k k k k k s k k k k N k k N m h h M B V V V V B V ",
"M g g g g g g N M g M k k g k k k k k k k s s k k k k k k s k g k k k k N N N M B B V V J D V V V V "
};
