/* XPM */
static char *result[] = {
/* columns rows colors chars-per-pixel */
"50 50 206 2 ",
"   c #422D0D",
".  c #462E11",
"X  c #4B3316",
"o  c #4C361B",
"O  c #4D3B1C",
"+  c #463216",
"@  c #533B17",
"#  c #543D1C",
"$  c #4F3C21",
"%  c #553E21",
"&  c #56401D",
"*  c #59411E",
"=  c #5D461B",
"-  c #604B1F",
";  c #574121",
":  c #5B4523",
">  c #5F4824",
",  c #5B4728",
"<  c #5E4A2B",
"1  c #5C4932",
"2  c #624C25",
"3  c #624B2A",
"4  c #694F22",
"5  c #66522C",
"6  c #6A552D",
"7  c #6D592E",
"8  c #695328",
"9  c #715B2D",
"0  c #795E2D",
"q  c #7B5E27",
"w  c #624E34",
"e  c #655433",
"r  c #6B5533",
"t  c #6D5A34",
"y  c #645438",
"u  c #695739",
"i  c #6D5A39",
"p  c #67593B",
"a  c #735D33",
"s  c #795F34",
"d  c #725D3B",
"f  c #79612E",
"g  c #6F603A",
"h  c #766034",
"j  c #7B6335",
"k  c #7E6837",
"l  c #74623B",
"z  c #7D6539",
"x  c #7E693B",
"c  c #6D5C40",
"v  c #725E41",
"b  c #766345",
"n  c #7C6843",
"m  c #7D6C4E",
"M  c #776949",
"N  c #856827",
"B  c #816636",
"V  c #826936",
"C  c #816639",
"Z  c #836A3B",
"A  c #896D3E",
"S  c #8D7335",
"D  c #9B7F38",
"F  c #A17F2E",
"G  c #846D41",
"H  c #8B6E41",
"J  c #8D7243",
"K  c #89754B",
"L  c #897649",
"P  c #917546",
"I  c #897855",
"U  c #B78E19",
"Y  c #9F823C",
"T  c #A58225",
"R  c #B89735",
"E  c #C19418",
"W  c #D0A110",
"Q  c #F6B500",
"!  c #FBB600",
"~  c #F7BA00",
"^  c #FABE00",
"/  c #F5B20B",
"(  c #F8B709",
")  c #F6BB0B",
"_  c #FABB0B",
"`  c #F3A915",
"'  c #E3B016",
"]  c #F8BB15",
"[  c #F6B818",
"{  c #C59D28",
"}  c #DDB73C",
"|  c #D1A82C",
" . c #F3AA23",
".. c #F2AB29",
"X. c #E0B62C",
"o. c #F5B728",
"O. c #F2AA35",
"+. c #F4B43C",
"@. c #FBC001",
"#. c #FFC805",
"$. c #FAC30B",
"%. c #FFC90E",
"&. c #FAC513",
"*. c #FAC51A",
"=. c #FCCA1C",
"-. c #F9C623",
";. c #FBCA23",
":. c #F7C32A",
">. c #FAC62D",
",. c #F9CB2C",
"<. c #F7C325",
"1. c #FFD126",
"2. c #FFD22D",
"3. c #FAC530",
"4. c #F9CE33",
"5. c #F7CA3C",
"6. c #FACC39",
"7. c #F7C730",
"8. c #FCD133",
"9. c #FAD13C",
"0. c #FFD836",
"q. c #9D8849",
"w. c #988656",
"e. c #B0984C",
"r. c #A58F58",
"t. c #A59259",
"y. c #B49F5C",
"u. c #988963",
"i. c #AC9C63",
"p. c #ADA069",
"a. c #B3A36C",
"s. c #B8A973",
"d. c #CCAC47",
"f. c #C7A845",
"g. c #C2A956",
"h. c #D5B750",
"j. c #E5BF43",
"k. c #F5BB4A",
"l. c #F3BB51",
"z. c #CAB260",
"x. c #C3B275",
"c. c #C9B979",
"v. c #D3BE70",
"b. c #F8CD43",
"n. c #F8CF4C",
"m. c #FBD343",
"M. c #FFDC43",
"N. c #FAD34B",
"B. c #FFDF4A",
"V. c #E6C553",
"C. c #EFCF59",
"Z. c #F5C25E",
"A. c #F9D553",
"S. c #FCDA53",
"D. c #FCD55C",
"F. c #FCDB5D",
"G. c #E8C446",
"H. c #FFE04D",
"J. c #FFE35D",
"K. c #DEC775",
"L. c #D6C57D",
"P. c #E0C96B",
"I. c #F7CA67",
"U. c #F8CC6B",
"Y. c #F7C96A",
"T. c #FFD761",
"R. c #FBDD63",
"E. c #FBDE6B",
"W. c #F5D365",
"Q. c #E5CD77",
"!. c #F8CF73",
"~. c #EED171",
"^. c #EAD37D",
"/. c #E5D17A",
"(. c #F9D579",
"). c #F8D578",
"_. c #FFE464",
"`. c #FDE26C",
"'. c #FFE866",
"]. c #FCE373",
"[. c #FCE57C",
"{. c #FFEB7C",
"}. c #FFE970",
"|. c #D6C887",
" X c #D6C684",
".X c #DFD08E",
"XX c #E6D486",
"oX c #EAD889",
"OX c #ECDD90",
"+X c #F5DE87",
"@X c #FCE582",
"#X c #FEEB83",
"$X c #FBE58A",
"%X c #FCE98C",
"&X c #F4E08E",
"*X c #FFF28C",
"=X c #FDEC94",
"-X c #FEEE9C",
";X c #F9E594",
":X c #FFF294",
">X c #FFF19C",
",X c #FBEEA2",
"<X c #FEF3A4",
"1X c #FFF8A4",
"2X c #FEF5A9",
"3X c #FFFBAD",
/* pixels */
"; # % % % % % % % % % % % % % % % % % # + + o @ & : > ; ; X . + # # # # @ O @ @ # # * # # # % # 2 # ",
"# ; # % % % % % % % % % % % % % 3 % $ 4 Y f.h.P./.oXXXoXXX Xa.n # X % # # @ # @ @ # # @ @ # # # # # ",
"# @ # # # # # # @ # # # # # % % X 4 g.D._.{.*X#XS.2.;.=.;.0.J.#X.Xw.& : 3 > , , : ; ; # @ # # # # # ",
"3 , , , , % , : : , : : % , % 1 r.A.M.b.%X].-.^ ^ ^ @.^ ^ ^ ~ ~ 8.{.|.d > 3 3 2 2 2 , > 2 % 2 2 3 2 ",
"3 3 3 3 2 2 2 % , 3 3 , 2 , = { B.N.$X=X8.^ ^ @.@.^ @.@.@.@.@.@.^ ~ H.;XG # 2 ; : : % 2 % 2 2 # 2 # ",
"% 2 % : % 2 % , : > > , , 1 v.'.N.T.[.&.^ @.@.@.@.@.@.@.@.@.@.@.@.^ ~ ;.;XK # 2 , 2 3 2 2 % % # # # ",
"3 3 2 3 2 2 4 3 2 3 2 5 - { M.b.%X%X$.@.@.^ @.@.@.@.@.@.@.@.@.@.@.@.@.~ =.%Xn > 3 3 3 3 3 3 3 2 3 2 ",
"3 3 2 2 2 2 2 2 2 2 4 ; e.M.4.9.[.$.@.@.@.@.@.@.^ ^ ^ ^ ^ ^ ^ @.@.@.@.@.^ 1.oX, # # = # # # # 2 # % ",
"3 3 : 2 2 2 2 3 4 6 2 V {.@X%X<X;.^ @.@.@.@.^ ) >.N.N.N.N.m.-.^ ^ @.@.@.@.~ B.x.: 3 3 : 2 3 3 3 3 2 ",
"w r r r 9 0 9 a a a 9 ' @.~ S.S.^ #.@.@.@.~ >.A.6.*.$.@.$.;.m.S.;.^ @.@.@.@.^ }.u.d v a r d d d s d ",
"# % # 2 - - - 2 2 @ r.:X$X#X@X$.@.^ @.@.^ b.m.@.^ ^ @.^ ^ ^ ^ $.N.9.^ @.@.@.^ =.XXr r r r r r r r r ",
": : # @ # # # # & # j.S.N.%X9.^ @.@.@.~ n.,.^ @.@.@.@.@.@.@.@.^ ^ 9.9.^ @.@.@.~ T.P   @ @ @ @ @ @ o ",
"3 6 3 6 3 r r 6 3 T %.^ *.].@.@.@.@.^ b.,.^ @.@.@.@.@.^ ^ @.@.@.@.^ 9.2.@.@.@.^ *.L., = ; : : : 2 3 ",
"3 : 3 3 3 6 3 r w |.1X-X<XN.^ @.@.^ <.6.^ @.@.@.@.^ _ :.=.@.@.@.@.^ ^ N.&.^ @.@.^ R.K % 2 , 2 3 3 3 ",
"3 3 3 3 3 3 3 : f 9.m.m.@X*.^ @.@.~ n.@.@.@.@.@.@.&.O.,X].@.@.@.@.@.^ &.m.@.@.@.^ 8.s.3 r r r 6 r d ",
"3 w 6 6 6 8 6 3 T #.! ;.R.@.@.@.@.7.,.@.@.@.@.@.@._ O.=X].~ @.@.@.@.@.^ 9.;.^ @.^ @.^.d a t a d s v ",
"6 t 7 7 7 7 7 8 L.1X=X>Xm.^ @.@.@.b.@.@.@.@.@.@.@.o.I.-X%XS.$.^ @.@.@.@.&.9.^ @.@.^ R.I 7 d 9 l a d ",
"2 2 4 - - 4 - 9 C.R.S.$X-.@.@.@.-.,.@.@.@.@.@.$...^.1X-X-X<X[.$.^ @.^ @.^ 9.$.@.@.^ m.s.0 x z z z z ",
"2 2 - > - 4 > N ^ ! ^ _.$.@.@.^ 6.*.^ @.@.@.#.[ l.>X-X$X$X>X>X;.^ @.@.^ ^ ;.,.^ @.^ ;.c.2 7 6 7 r 6 ",
"6 6 5 8 5 8 2 q.{.[.$X].@.@.@.~ 5.@.@.@.@.$.$...!.2XE.$.[ Y.].^ @.@.@.@.@.$.9.^ @.^ &.P.8 2 8 5 3 6 ",
"p e t t 7 7 5 y.*X#X=XT.^ @.@.&.4.@.@.@.@.$.$...(.2X6.^ _ ( $.@.^ @.@.@.@.@.9.@.^ @.^ ~.l 5 6 r r r ",
"t i i t t t y U @.! 2.S.@.@.@.*.,.@.@.$.$.$.$. .!.1XS.^ ^ @.@.^ @.@.@.@.@.@.6.$.@.@.^ W.b : , 3 2 , ",
"i d d d i d y d.M.9.`.N.~ @.@.-.,.~ $.$.$.$.@.` Z.>X-XN.@.^ @.@.@.@.@.@.@.^ 4.&.^ @.^ D.M ; 3 3 , 3 ",
"v v d d d l r |.3X2X2X4.@.@.~ ,.,.@.$.@.$.@.@.@.O.$X:X>X[.,.^ @.@.^ @.@.@.^ ,.*.@.@.! F.I e i u i u ",
"v v g b g g c | 1.*.F.9.^ @.~ ,.,.@.$.@.^ @.@.@.( +.$X:X-X-X9.^ @.@.@.@.@.^ >.*.@.@.~ D.u.p b M b b ",
"; , ; & & & $ W #.^ N.m.^ $.@.,.,.$.@.@.@.@.@.@.@.~ o.U.-X-X=X&.^ @.@.@.@.^ ,.&.^ @.~ S.m & < 1 w y ",
", , < , < 3 , c.1X=X<XN.@.$.@.-.;.@.@.@.@.@.@.^ @.@.@./ k.%X>Xm.^ @.@.^ @.^ 4.&.@.@.~ W.M ; < < 3 1 ",
"y u t e 5 e < g.`.T.[.S.@.$.$.-.,.^ @.@.^ @.@.@.@.^ @.#.` I.2XS.^ @.@.@.@.^ 6.$.^ @.~ W.M , 1 < 1 , ",
"p g p g t 7 y U @.! *.R.@.$.$.=.6.@.@.@.@.@.@.) +.S.^ @.` I.1XN.^ @.@.@.@._ 6.@.@.@.^ ~.p : < < 1 < ",
"5 p 5 5 5 e < q.}.E.[.].$.$.$.$.9.@.@.@.@.@.@.` !.1XT.:.l.=X<X6.^ @.@.@.@.$.6.@.@.@._ Q.y e e y y u ",
"5 e 7 5 5 7 < L :X=X-X#X$.@.@.~ 6.&.@.@.@.@.@...).>X-X-X-X<X%X@.@.@.@.@.@.-.,.@.^ ^ -.c.y g i i u u ",
"g g g g g g g k ) @.~ F.-.@.@.@.;.,.^ @.@.@.@.@...(.>X=X-X:X,.^ @.@.^ @.^ 6.*.^ @.~ 6.s.y g i i i i ",
"g g k g g k g g } M.4.].M.~ @.@.$.N.@.@.@.@.@.@.@./ k.=X#X*.@.@.@.@.@.@.$.5.@.@.@.~ D.I , p r p y u ",
"7 9 9 h g g g 7 a.1X,X2X`.~ @.@.@.8.=.~ @.@.@.@.@.@. .;X].^ @.@.@.^ @.^ 7.,.@.@.^ ^ Q.$ + O < v m m ",
"t 9 7 7 7 7 9 e S =.$.&.`.&.@.@.@.$.N.@.@.@.@.@.@.^ ..(._.~ @.^ @.@.@._ n.@.@.@.^ >.x.< : +   O r I ",
"9 7 7 7 7 7 7 7 7 X.2.;.].9.~ @.@.~ 8.4.~ @.@.@.@.@.@.$.@.@.@.@.@.@.@.5.;.^ @.@.~ D.w.3 i v e O   O ",
"7 7 7 7 7 7 7 7 < i.2X-X<X[.~ @.@.@.@.N.*.@.@.@.@.@.@.@.@.^ @.@.@.~ >.9.~ @.@.@._ /.g t t t d t e & ",
"t 9 9 t h 9 h h t h *.$.@._.4.@.@.@.^ @.S.*.~ @.@.@.@.@.@.@.@.@.~ >.N.@.@.@.@.~ N.p.8 l l t 6 t t d ",
"h 9 h h h h h h h 7 R B.b.`.[.@.@.@.@.@.$.S.,.@.^ @.@.@.@.@.@.~ 5.n.@.@.@.@.@._ ^.x h l 7 d s l a 6 ",
"f 9 9 h t 9 9 9 h 7 x oX#X[.:X9.^ @.@.@.~ @.m.N.-.@.^ ^ ^ _ >.A.8.@.@.@.@.@.Q T.i.7 k h j j h a s d ",
"h j j h j j s s h h r F @.^ &.#X&.@.@.@.@.@.^ *.9.A.N.N.N.N.9.&.^ @.@.@.@.~ >. Xs j k h f h k k C G ",
"h h s h d j h s h h j a z.*X@X-X@X~ ~ @.@.@.@.^ @.@.$.&.$.@.^ @.@.@.^ @.^ ] $XJ f j k x k h x x G G ",
"h h s h h j j k k k k j n j.2.*.S.E.~ ^ @.@.@.@.@.@.@.^ ^ @.@.@.@.^ @.^ / @Xr.f Z Z Z Z x A x A H G ",
"j k j j j z k V V x C Z k N G.J.R.2XE.^ @.@.@.@.@.@.@.^ @.@.^ @.@.@.~ / @Xa.0 A Z Z S Z Z A n A G C ",
"j j z j j j z z k j k Z Z z K V.M.,.E.[.*.^ @.@.@.@.^ @.@.@.@.@.@.Q o.=Xi.0 V V B C C C x Z Z V C C ",
"h j h h j 0 j 0 s s s j j j a 0 f.`.F.#X$Xn.) ~ ^ @.@.@.@.^ ^ ! ] T.OXq.0 V B B z B B B k V C C s z ",
"h 0 h j j j j j j j j s s j j j d Y } M.S.:X$XA.>.] _ ( / [ 5.E.&Xx.G s V B V V Z A A C C G A Z C H ",
"f f j k k z z z z z k x Z Z Z C Z j x t.f.V.R.$X=X$X$X@X+X+X Xa.K s C C V V A A A A P H H P P J J P ",
"h j z V V k k z k j j z B z z z z z z a d C H S S J K P L k a a z G Z x k k V G A Z A A J J A J P J ",
"j k x V x V B z j j j j B z z z j j s k C j s d j s j s s j j k z z C C Z Z A H J G A A P J J P P P "
};
