/* XPM */
static char *result[] = {
/* columns rows colors chars-per-pixel */
"50 50 229 2 ",
"   c #363A17",
".  c #412E04",
"X  c #412D08",
"o  c #45310D",
"O  c #46350A",
"+  c #4F3815",
"@  c #4D3B1B",
"#  c #493513",
"$  c #523C16",
"%  c #543D1C",
"&  c #583A1A",
"*  c #553D21",
"=  c #583C26",
"-  c #70312A",
";  c #1D4022",
":  c #3B4727",
">  c #375B3A",
",  c #2D4F2A",
"<  c #2F663C",
"1  c #47441E",
"2  c #55411D",
"3  c #59431E",
"4  c #5C4A1F",
"5  c #544117",
"6  c #604B1E",
"7  c #4A4422",
"8  c #4A4C2B",
"9  c #4C4B26",
"0  c #564222",
"q  c #5B4424",
"w  c #554925",
"e  c #5D4A25",
"r  c #5C4629",
"t  c #554C2A",
"y  c #5C4B2A",
"u  c #55442B",
"i  c #4B532A",
"p  c #5D5026",
"a  c #56552C",
"s  c #5D532C",
"d  c #5F5C2F",
"f  c #5C4C30",
"g  c #5E4531",
"h  c #4D5334",
"j  c #4D5C34",
"k  c #4A5E3C",
"l  c #425637",
"z  c #535433",
"x  c #5C5433",
"c  c #5D5A33",
"v  c #5C5C3A",
"b  c #535A37",
"n  c #4F4432",
"m  c #624624",
"M  c #624B25",
"N  c #624628",
"B  c #634C2B",
"V  c #694E28",
"C  c #65522C",
"Z  c #6B542D",
"A  c #635B2D",
"S  c #6D592E",
"D  c #665526",
"F  c #725C2D",
"G  c #785E2D",
"H  c #614C32",
"J  c #655432",
"K  c #6B5533",
"L  c #645A35",
"P  c #6C5A34",
"I  c #6B5539",
"U  c #635C3C",
"Y  c #6D5C3A",
"T  c #63543B",
"R  c #745433",
"E  c #725D33",
"W  c #7A5D34",
"Q  c #735D3B",
"!  c #795938",
"~  c #7D433F",
"^  c #4C643B",
"/  c #5E6435",
"(  c #5B643D",
")  c #56663C",
"_  c #6E612A",
"`  c #75622E",
"'  c #78612F",
"]  c #6C6235",
"[  c #64643D",
"{  c #6B623C",
"}  c #666838",
"|  c #766134",
" . c #7B6335",
".. c #7D6935",
"X. c #74623B",
"o. c #7C6539",
"O. c #75693A",
"+. c #7E693C",
"@. c #7A703F",
"#. c #3B7648",
"$. c #785944",
"%. c #6A5A40",
"&. c #496543",
"*. c #546445",
"=. c #5E6542",
"-. c #596C47",
";. c #4E704D",
":. c #5A734C",
">. c #547748",
",. c #5D7A53",
"<. c #597857",
"1. c #5A6E55",
"2. c #646D42",
"3. c #6B6A44",
"4. c #696848",
"5. c #756243",
"6. c #7B6543",
"7. c #736A41",
"8. c #786A48",
"9. c #69724C",
"0. c #677649",
"q. c #756E51",
"w. c #6A7B55",
"e. c #677859",
"r. c #747C5A",
"t. c #777859",
"y. c #666A51",
"u. c #437D64",
"i. c #627863",
"p. c #787E62",
"a. c #BE193B",
"s. c #863D3B",
"d. c #99323C",
"f. c #BB263C",
"g. c #816536",
"h. c #826937",
"j. c #82663A",
"k. c #836B3C",
"l. c #896C3E",
"z. c #B71642",
"x. c #B02947",
"c. c #A12D42",
"v. c #8A4442",
"b. c #B5405D",
"n. c #836D41",
"m. c #8B6F42",
"M. c #826A4D",
"N. c #8D7143",
"B. c #88714F",
"V. c #907446",
"C. c #927549",
"Z. c #917D5A",
"A. c #A07262",
"S. c #4A865C",
"D. c #55825B",
"F. c #6C8458",
"G. c #78815B",
"H. c #5B8764",
"J. c #4A9267",
"K. c #5C9877",
"L. c #4A8D6B",
"P. c #798968",
"I. c #6E966B",
"U. c #7A9468",
"Y. c #778B74",
"T. c #7A9574",
"R. c #688E6E",
"E. c #58A279",
"W. c #6BA27B",
"Q. c #6AA273",
"!. c #899769",
"~. c #818F77",
"^. c #929073",
"/. c #8BA37E",
"(. c #95A173",
"). c #BA7681",
"_. c #C67681",
"`. c #F1708C",
"'. c #E96189",
"]. c #59AF88",
"[. c #63A483",
"{. c #63AA89",
"}. c #77A885",
"|. c #65B48D",
" X c #7BB48B",
".X c #72B88B",
"XX c #68B793",
"oX c #78B996",
"OX c #7FAB9A",
"+X c #70BFA0",
"@X c #69C49C",
"#X c #76C99F",
"$X c #5DC0A1",
"%X c #63C7A6",
"&X c #69C6AC",
"*X c #6DCDAD",
"=X c #67C8A6",
"-X c #76C8A5",
";X c #68D0AA",
":X c #6DC6B0",
">X c #889D8A",
",X c #82A784",
"<X c #84B48A",
"1X c #92B39E",
"2X c #ADB48C",
"3X c #B8A09C",
"4X c #D0838B",
"5X c #CDAD9E",
"6X c #E09FA7",
"7X c #F0AEB3",
"8X c #80C29E",
"9X c #8CC18D",
"0X c #82C4AA",
"qX c #9AD6BC",
"wX c #B0CEAF",
"eX c #B4ECBB",
"rX c #CDD2AA",
"tX c #F6BAC6",
"yX c #B4F5DF",
"uX c #C0D3C0",
"iX c #DAD6C8",
"pX c #D4E4DB",
"aX c #CAE0D3",
"sX c #F6FACC",
"dX c #ECFFD0",
"fX c #F7F3D4",
"gX c #EBF9E7",
"hX c #F7FCF3",
"jX c #E9FFF9",
/* pixels */
"q q q * 3 % q * q * * * * * * * = = = * 2 @ + % & & @ 7 1 7 * & % $ % 5 & q % % q * 3 * 0 % * * 0 * ",
"% % q q * q % q * * * % = * * * = = * 0 0 3 0 q N q r 7 8 7 0 * % 5 $ $ $ % $ + % % % 0 * * % % * 0 ",
"q * 0 % % % % % % % + % % % % * * * * 0 % $ $ & & % r t U 9 u y M e e q q 3 3 % % * % q q q q * * * ",
"* 3 % q q q q r r q q q q q q q r r r r 4 3 3 3 N q 7 x T 0 t Y y V M M e N q q M q q q q * % + % 0 ",
"q * q q q q r N N y e N N M y N q r m e m 4 4 q q w 7 3.J u x c q 4 q q q q q q q q 0 & 0 % % % 0 0 ",
"q q q q q q q q q q q q q q q e N q M m m 3 M q M t 9 [ B * 3.[ w e q e M M M q q & * 3 0 q q q * % ",
"q q y N B B B B B B B M M B D B C C V V M M V V B y ( 9.y x 3.i s M N N N B M N N y M q q q q y 0 0 ",
"N y N q r q e N M M e M M M M M M M m 6 6 4 4 m N w =.2.7 Y 3.7 0 4 0 3 q q q % 3 3 q q q q N N y r ",
"q q q q N q q q e e M M B V V M D V V M p e e M N r 0.j 9 { L t C B B H B B m N N M M q q q q q B B ",
"B H B B H K C R P R E E E E E E F E E E E P E Y P U t.) ) G.{ { $.Q Q o.6.Q Q Q Q Q Q R R R K K L J ",
"* & % % % % % % 3 4 e e 6 q 6 4 m 6 p p D M e y w f 4.: j w.t K B N B C K K K K K P P K P Y K P H B ",
"& @ @ % % % 3 q % % 3 5 3 5 $ 3 $ & 5 5 3 3 3 0 1 x 4.  ^ h o + & # + + + + + + + % % % % % % $ % @ ",
"r q q N N B N C V Z K Z C C Z R V V Z Z R P P U b t.4.x F.j e B B B N N q q & q * q q N q q M q q y ",
"q = q q q 0 q N B B C Z Z Z Z Z R F S P K P Q U v P.U 4.r.h I K K C K B B B N B M B V C C K Z Z C J ",
"q q r N N B B B M N M e M M M 6 M M M e y M B f *.e.h q.v 9 y N J B B K Z K C C K P K R P K K Z B C ",
"y B B B C B B C Z Z Z Z C B M M M V B B N y B f :.0.h t.U L I K R Q E Q  .Q X.R P E X.O.o.X.X.R Q Y ",
"M M B Z C V Z Z F F S S S P P P P ! Q Q X.5.! Q F.,.1.P.8.M.o.6.O.n.o.o.6. .o.E E E ] P | P Q Y I P ",
"4 4 M e m M M D e 6 6 C C C S P Q K E Z P O.Q L F.&.e.e.5.Y +.o.o.| n.n.n.k.| k.o.O.O.O.X.Y P P I K ",
"e e w M B C N e p 4 6 D S Z R R K E C E C p f v <.> <.h r P Z D D ] S ] | S F Z Z S Z K Z s B e w w ",
"M p C C Z J L B C D Z C Z C s d C B 4 6 e x t *.,XW.H.^ [ C S S A a d _ Z Z Z Z D V C C M s r w w q ",
"M M N B J K K R R R R V s / F.!.s e C M w 1 y.*.; S.|.< 9 C M 4 w } / d P E R Z Z Z K C C H s y B s ",
"N q q r N H R ! ! R ! | } j ) F.G.c K y [ z 2XsX/. X#XJ.8 y 4 9 !.(./ 1 y & B m m N B e y w w w r t ",
"J B y f x L Y Y Q Y R Q Y L v =.T.*.v U h r.fXsXdX<X@XE.l x h w.P.j z c y w y B m N B y N r y t y w ",
"I Y %.Y U Y Y 5.Y X.X.Y Y $.Y U Y.e.v 4.*./.rX2XdX9X=X].:.4.e.T.=.[ 3.{ Y 6.$.! ! I I R P L J J C J ",
"5.5.$.5.5.$.Y $.5.{ X.{ 7.Y %.4.i.T.c [ 1.>XT.[.eX X-X{.1.9.T.R.y.q.q.8.8.6.5.5.5.5.5.5.5.{ X.Y Y Y ",
"r q 0 r r r q w 2 2 @ 0 0 7 @ 7 : P.z   k }.XX{.E.|.:X].> w.Y.l z f w y r r 0 0 r y B L L I J J J J ",
"q q w 0 u 0 w r y y e y N N N g 8 e.t.  P.wX{.{.W.qXyXL., T.-.8 y y r q r r r t y f y y q q q q q r ",
"C B H J J J J L J A Z J P K K T v =.Y.k y.iXpXpXfXuXOXu.S.I.z T C H B J H J H y y t w t y H J I I L ",
"J J L L J J I P P J J P R K ! I x b Y.1.= $.6X_.7X$.i.K.[.> x H B C K K K H y r f t y y B B C C I L ",
"J J J L L K J K K C D S K H K J Y h <.Y.= s.x.x.z.c.p.OXD.; = H I L Y Q Y I J L T J L U L Y Y Y Q { ",
"B C Z J s A C C K Z Z P P A L c x x l U.$.s.x.z.a.d.}.}.k %.T n s A J L P Y Q Y Y L L J L J J P P U ",
"P Z L P L P P Q ! E W | X.Y } } P Y ( P.M.v.b.'.`._.>XH.( %.%.%.y p p C J Q %.Q Y Y I Y P L P K P I ",
"E E X.E E X.X.E  . . .X.X.X.O.O.O.5.=.q.A.- _.tX7XiXY.;.[ P ] Y { { J r % 0 r J Y T K Q J K P I K K ",
"Z S F P Z S E E E P E E E E E X.X.X.z ^.fX5X3XhXaX1XR.&.d D { P Y Y { Y C 0 @ o % K M.8.I R P C B C ",
"S S Z Z S S F S P E S S P S P E S L 9.U.wXhXhXjXqX.XH.k A D P P P P X.Q Y K y q o # L Z.^.B.6.o. .6.",
"S S S S S S S S S S S P S S S S S J j ,X<X0XqX+XXX-XD.z S F Z E X.P P P P P Y Y Q % o % R o.6.M.6.X.",
"V S Z Z F Z Z Z S S S S S S S S S ] ^ }.#X%XXX&X$X=X-.} S F E | P | E P P P P P P Q C $ . O 4 R | ] ",
"S S S V F F E F F E E E | P E ` | } ^  X-X%X:X=X;X|.-.] ` ' W ..| | X.O.| | E X.C P E ] V $ . . e D ",
"S F Z F F | | F | | | | | | |  .+.] y.<X@X&X%X:X;X].2.F ` ` ` | +. .| | | | X. .O.| P D V 4 + . . O ",
"S F F S F | | E E F E F S F E | ` ] ) <X-X:X&X=X;XE.c ` _ _ ' ' ` ` |  . .o.| | E X.| | | ] S S M 3 ",
"F F W | | |  .| | |  .W E E E | | ] ) <X-X&X&X$X@XS.} _ _ ` G W ' ' ' ' ..| | E E ..@.k.+.+.| | X.O.",
"| W | |  .| W W W | |  . .E W ....] } T.0X&X@X*X|.S.} ` _ | G G  .' .. .....k...o.k.k.n.n.+.+.O.o.o.",
"| | | | | | | | | |  ...o...o.o.| | ] e.#X-X;X=XE.>.} ..` ..g.g.h.h.h.h.j.k.k.k.n.n.l.n.k.k.k.n.o.+.",
"'  .' W |  . . .|  . ...g.g.k.k.+.O.O.9.Q.@X;X|.F.} O.@...k.k.m.h.h.k.k.k.k.l.k.l.n.k.k.h.+.k.k.k.n.",
"F F G | ' | ....g. . .o.o.g.o.k.+.o.o.7.I.J.].[.2.! o...W g.j.k.h.h.h.h.j.j.j.j.h.h.g.g... .g. .j.g.",
"F F F | | | |  .| W |  .|  . .| W W  .] U.#.J.R.{ W W W W W ! o.h.h.g.g.g.j.h.g.h.g.' h... .' g.W W ",
"F F F F F | ' W | G | |  .|  . .g.j..._ U.D.H.R.{ | | F W j.o.o.g.g.g.g.j.m.j.j.l.j.l.l.l.l.h.l. .j.",
"F F F F F F G |  .g.j.k.g.g.g.j.j.k...@.F.} 9.!.6.k.o.o.n.j.6.n.k.h.g.l.m.V.V.m.C.V.l.V.V.l.V.l.m.n.",
"F F F '  . . . .g.h.k... . ...g.j.g.o.o.X.O.3.O.5.o.o.| o.o.o.o...g...k.l.k.k.N.N.l.C.N.V.l.m.m.m.m.",
"G F F _  ... .g.j.j.h. . . . .g.g.g.o.o. .+.o. .o.o.| o.o.g.o...k.k.k.l.N.l.l.V.N.N.C.V.V.N.N.N.m.N."
};
