/* XPM */
static char *result[] = {
/* columns rows colors chars-per-pixel */
"50 50 241 2 ",
"   c #000404",
".  c #141517",
"X  c #040B15",
"o  c #2D180E",
"O  c #3B2D19",
"+  c #3B321C",
"@  c #323834",
"#  c #2F342E",
"$  c #171621",
"%  c #452B1B",
"&  c #42331B",
"*  c #4A351B",
"=  c #45391E",
"-  c #4E3B1D",
";  c #473316",
":  c #523D1D",
">  c #5B341D",
",  c #5A2B1C",
"<  c #68291D",
"1  c #73291C",
"2  c #4D3C22",
"3  c #4B3825",
"4  c #533E22",
"5  c #5B3827",
"6  c #5B3A3F",
"7  c #683927",
"8  c #743424",
"9  c #783928",
"0  c #6D3B38",
"q  c #6E3129",
"w  c #54411D",
"e  c #5A441E",
"r  c #5C491F",
"t  c #66521E",
"y  c #4C4527",
"u  c #544323",
"i  c #5B4523",
"p  c #5E4923",
"a  c #544329",
"s  c #5A452B",
"d  c #56492B",
"f  c #5B4B2C",
"g  c #5E512E",
"h  c #5D5024",
"j  c #484631",
"k  c #5A4C31",
"l  c #584733",
"z  c #5B5232",
"x  c #5D5A3C",
"c  c #4D523C",
"v  c #614723",
"b  c #624B25",
"n  c #634C2A",
"m  c #694C2C",
"M  c #68462B",
"N  c #75432C",
"B  c #655223",
"V  c #6B5325",
"C  c #65522C",
"Z  c #6B542B",
"A  c #6D592B",
"S  c #6B5927",
"D  c #725A2E",
"F  c #73592B",
"G  c #624D32",
"H  c #6A4734",
"J  c #784432",
"K  c #655433",
"L  c #6A5533",
"P  c #665A35",
"I  c #6D5A34",
"U  c #6D5C3A",
"Y  c #65573B",
"T  c #735D34",
"R  c #745D39",
"E  c #785C37",
"W  c #79622E",
"Q  c #6E6139",
"!  c #766235",
"~  c #7B6335",
"^  c #7E6836",
"/  c #75623B",
"(  c #7C643A",
")  c #7C6939",
"_  c #323845",
"`  c #384349",
"'  c #395172",
"]  c #564D44",
"[  c #5A5347",
"{  c #4E5357",
"}  c #724644",
"|  c #665A44",
" . c #735649",
".. c #6C6844",
"X. c #7A6542",
"o. c #7E6943",
"O. c #756441",
"+. c #7A6F54",
"@. c #475468",
"#. c #555974",
"$. c #5B5D64",
"%. c #6F5B67",
"&. c #576478",
"*. c #747275",
"=. c #8B251C",
"-. c #AE2113",
";. c #842D23",
":. c #942D23",
">. c #853728",
",. c #973526",
"<. c #913D35",
"1. c #A52E24",
"2. c #A93327",
"3. c #B8372A",
"4. c #BD3C31",
"5. c #C6321F",
"6. c #CA2F1B",
"7. c #C73828",
"8. c #D63D2A",
"9. c #90432E",
"0. c #864937",
"q. c #9B4737",
"w. c #855138",
"e. c #A74839",
"r. c #B84639",
"t. c #836A36",
"y. c #80653C",
"u. c #826A3C",
"i. c #896E3D",
"p. c #896D37",
"a. c #8A713C",
"s. c #DA402D",
"d. c #C44D3D",
"f. c #C74737",
"g. c #D94935",
"h. c #DB523E",
"j. c #CF402D",
"k. c #E64C37",
"l. c #E8533D",
"z. c #F4563D",
"x. c #864842",
"c. c #995347",
"v. c #A85547",
"b. c #B55746",
"n. c #AB5449",
"m. c #846C41",
"M. c #896E43",
"N. c #8D7244",
"B. c #8B7549",
"V. c #927646",
"C. c #957848",
"Z. c #916554",
"A. c #B2665A",
"S. c #8C716F",
"D. c #AA716B",
"F. c #C85547",
"G. c #D75744",
"H. c #C24F41",
"J. c #ED5C44",
"K. c #E45944",
"L. c #F55B43",
"P. c #D66654",
"I. c #EB624C",
"U. c #F6624B",
"Y. c #E86956",
"T. c #FC6B55",
"R. c #F36C58",
"E. c #F6725B",
"W. c #ED735D",
"Q. c #DB7768",
"!. c #C9786D",
"~. c #EA7563",
"^. c #F47763",
"/. c #F27F70",
"(. c #8C936C",
"). c #A19B68",
"_. c #E78879",
"`. c #F68877",
"'. c #F18977",
"]. c #5B7A94",
"[. c #57698D",
"{. c #737D96",
"}. c #657591",
"|. c #5A6EA5",
" X c #5E72A9",
".X c #6579A6",
"XX c #667BB1",
"oX c #515E80",
"OX c #5A8BA7",
"+X c #778AB6",
"@X c #669FBC",
"#X c #6F8CAF",
"$X c #68A1BC",
"%X c #7CA9BE",
"&X c #6A839D",
"*X c #6AA6C5",
"=X c #76ADC9",
"-X c #7AB0CC",
";X c #6BB1D2",
":X c #968688",
">X c #969794",
",X c #A5AB86",
"<X c #899ABA",
"1X c #8796A9",
"2X c #84A6B8",
"3X c #93A7B1",
"4X c #A9A4A7",
"5X c #B5B4B5",
"6X c #AFB2B6",
"7X c #AE908D",
"8X c #FA9786",
"9X c #E79586",
"0X c #D0BEBC",
"qX c #BEC6A5",
"wX c #C7D6AB",
"eX c #D3E6B2",
"rX c #C7DA9A",
"tX c #8499C6",
"yX c #95A7C9",
"uX c #8DA3D1",
"iX c #99B8D8",
"pX c #90B0D0",
"aX c #A7BAC9",
"sX c #A7BADB",
"dX c #A8BDE3",
"fX c #93C1D8",
"gX c #AFC9D4",
"hX c #93C6E1",
"jX c #AAC5E7",
"kX c #B3C7E8",
"lX c #B6D7E7",
"zX c #B0D7F7",
"xX c #B9E6F9",
"cX c #CED5D8",
"vX c #C8DAEB",
"bX c #CAECFA",
"nX c #CCF4FF",
"mX c #D8E6EC",
"MX c #FDFFFF",
"NX c #E6F7FC",
"BX c #E5F7C3",
/* pixels */
"u w : w : : 4 4 4 4 4 4 4 u u u 2 - 4 2 - 2 u 4 - : : - - - - w 3 2 4 - w - - w w i w w w e w w e w ",
"a a u a a 4 4 4 4 4 4 5 4 4 4 4 a s u u u s u i i s i u u e w = 4 = : - - - - * * * * * * : - - w e ",
": : : * - * : - * 2 2 4 3 : 4 : : u : : : : : w u w w i i i p 5 7 5 i b p p b r r e e e w u u 4 w e ",
"p r p i p i u i e i u i i s p i b s p s i i u e e u i r r p b s % 5 4 r r 4 i 4 r r r r u e e e e w ",
"n b b m n b n v n M v s i p i p i i i i i i e i i e r r e r w 7 < * p p u 5 q 5 u p i i e i i w e e ",
"i i i i i i i i e i i b v b p i p p b r p b b b b b v r r w H '.f.> b e 2 q , i i p i i i a u u : : ",
"b M b n m b n n n b B b b m b V b V b b b b b b b b b b b > '.^.7.7 s 5 !.E.1 p m m m m n n C m m f ",
"n n M n n n v n n n n v b b v b b b v v b v b b v r v t : b.`.h.1.- > Q.8X8.8 - e : w : : > : e i e ",
"e e e i v b b n m n b v n b m b b b b b v v v b v v v p 7 ~.W.7.8 2 v.8Xl.3.> m M b b b b p v v p p ",
"L L I T / E E ( ( / E / ( ) ( E E E E T ~ E T T E D E C e.`.k.2.g N /.Y.s.;.I y.~ ~ E E T E E T T F ",
"2 u u i u w u i i u u u u s f n f C n K n f s d i u u 2 P.E.8.< - r.`.k.3.% f K A T I A T T T T I T ",
"u 2 4 u u u w : w w u u w ; - - ; - - u u 4 : 4 : - & 7 ^.K.2.+ , ~.I.8.< & ; ; ; & & ; O & & & & & ",
"b b B C L Z Z Z Z Z V Z Z V F Z Z Z Z V Z Z Z Z A A C e.R.s.8 u v.^.k.:.a m n n p p s p i n f v n n ",
"s p n m m Z I Z L A A I T L L T / E T T E ! ! ! ( ! C H.U.3.n b Y.I.7.7 K M n n i p i i p p i v n m ",
"r b b r p p r v b i p p i u i s v i i u i i p s v s M U.z.>.y 9.T.k.;.f Z m K K K K K L L L Z R L L ",
"B t t V A S t t V b m b b b n v n b s n n m G m n s 0 c.e.7 a G.U.3.M I T U I T ( / / E R R T ! E ( ",
"A S S S S S A A F L T T T T R R R R R X.X./ X.X.X.E ..X j R  .J r.9./ y.( y.m.) / ( / ! T I I I T I ",
"p p b b n G n n C G L L L U L I U I T L T R T L T m ,X(...! (.X j m / ( y.m.m.N.N.m.m.m.m.o.u.o.m.m.",
"n n n s f B n C C V V V Z L Z Z L L C K C C C C C w qXrXh g wX(.Q p Z C Z T D A D S A A S C V C m V ",
"S C B Z Z Z F F I F F V V V m n v n b n C f n K L Y eX(.i +.BX(.f T I T I A A A A S S B B C B b p B ",
"I Z V V Z Z V m V m m m m n b n n s s s s s 5 d : | eX..; ,XeXd p n n f f n C C C C I K I I L L A C ",
"L I R R T T T T T E R T T I U U U L L L L Y G J M (.wXd d wX(.3 k l k k k d f f d f s d d s f k f f ",
"U / U I U I L I I I P K K P K K L K K L K K K M < Z.(.7 ..eXQ k K G G k G k z f f s s f f f s s k f ",
"I R I T T T I I I I T T T T T T R R T T R E T Y Z.,.F.F.S.,XG / R ! E ( ( E ! ! ! E T T P L L L L P ",
"/ X./ O.X.O.o.o.o.X.Q X.o.o.X.X.O./ X.m.B.O. .P.T.I.I.W.b.c.c.c.J B.B.M.M.M.m.m.m.m.m.o.X.X.) / ) X.",
"2 2 2 2 2 = 2 y = 3 H * + 3 = & + O O 3 + x.^.8.e.H.d.b.c.:XyX1X>.d d u u d u y 2 y a y 2 y d k z K ",
"f k f g g k d d k l r.e.J G z r s z K j c.R.K.-.D.cX5X5XmXmXvXgX9 n g f f g f h f u u a u d f d d d ",
"K K x K P x P Y x z M ;.M 9.0 {.1XY s c.T.k.F.7XS.mXMXMXMXMXgX4X< z K C g g g g C K C g g g k G k C ",
"Y Y U U U ..U Y l J M 8 N z ] lXnX2XM L.z.7.wXMX5X5X4X4X:X:X6 q ;.5 k K K k G L K K k u s s s s s f ",
"P K P z k d Y s F.8X'.A.,.m c $X-X#XaX).s.h.7XmXMXMXgXcX>XS.$.:.4.J [ ! R R U U Y K K P L Y Y L K K ",
"K K z 0.e.e.5 s 3.f.G.^.R.8.>.y { hXtX$X%.6.3.A.5XcXNXNXlX6XA.7.7.2.2 w Y Y E U Y U U R U U U R U U ",
"I E U q.T.R.h.Q.,.<.2.s.I.J.k.1 %XxXjXxXaX4X!.3.e.n.D.D.A.r.6.7.1.<.] }.].] E  .y.w.L / R U U U R L ",
"! R Q 0.J.Y.R.W.Y.W.U.I.I.l.r.}.pXxXbXbXgX6XgX6X2XgX>XS.} } %.*.].*XzXhX0 0.0.0.H.1 y L L L U H m K ",
"E ! ! n d.~.Y.I.R.I.Y.Y.K.k.1 ` &X3XlXbXlX3XlXnXgX=X@XOX$X;X;X;X*X*X-X-XOX@.z c.J a O O + 3 Y m.M.E ",
"D Z A C 9 Y.9X~.G.k.h.h.s.2.. # ` #.>X2XlXnXnXbXxXfXiXhXhX;X=X*X$X$X&.{ [ Y q.8 v H | Y a + o + Q ).",
"T I A D P 9 F._._.G.h.d.7.} &X# # @ g z *.>XfXlXxXxXzXhXpX=X=X*X@X;X$Xd 9.d.H.!._.P.7 K ! U K 3 o O ",
"V Z Z Z D C > :.r.d.d.7.-.%.zXyX@.t # @ # y +.{.%XpXfXfXpX;X=X*X@X*X&Xe.L.W.~.I.G.l.8 P I T T O.Y a ",
"T T T ! E ! ! K M 9 9 J M $.kXkXvX>XC y @ # S _ { @.&.].&X].[.[.&.' 2.T.~.I.j.<.;.:.s I m Y I C A / ",
"T T D ~ ! T D ~ ~ ! ! ! y.l uXkXkXyXyX1X..! 3 @ # @ # _ =X_ X $ X o L.^.U.z.J.J.d.G.e.P.r.n.J Z Z n ",
"T D D T D D D W D D F D E Z $.dXkX<XsXdX}.1X<X}.` # . { iX$       < U.I.I.J.J.z.U.L.z.z.k.k.9 ! ! ( ",
"! ) ! ! W ! ! ! T D W T ! W c [.dXyX<XuX[.dXvXvXdXsX<XtXtX|.@.#.' x.z.l.l.J.K.l.K.l.g.g.8.1.b t.t.u.",
"W W ~ ~ ~ W ~ ~ ~ t.~ ~ ~ Q yX1X#.+X+X{.{.kXsXdXdXsXuXuXtXtXtX+XXX$.f.W.I.h.h.g.g.G.W.P.3.8 ) t.t.u.",
"! W W W W ! ~ ~ ~ ^ ~ ~ t.| iXzXtXoX#.[.+XuXuXyXyXuXtXtXXXXX X X X@.< f.P.Q.Q._._.9X_.F.8 ~ a.a.p.p.",
"~ ~ ~ W ~ ~ ^ t.^ ^ ^ ^ ~ T 0 S.&X&.b | $.oX|. XXXXXXX X X X X X{ R ! 7 =.2.4.d.d.f.1.7 ! p.t.t.p.p.",
") ) ) ( ) y.u.u.u.u.u.u.u.) b.:.B E t.t.W D L K } [ | ] tXiXuXXX| p.u.a.! m 8 8 8 7 m u.p.y.t.t.t.W ",
"D D E D D E E D ~ T T T E D J D y.! T ! ~ E E ~ D F D Z {.2X{.{ L y.W ~ y.( ! ) ) y.u.y.( ( ( ~ E t.",
"E ~ ~ ~ ~ ( ( ~ ! ~ ( ( ~ ~ ~ ~ ! ! R ( ( E ! ! ! ( E ( T f :.,.! u.( u.y.y.y.M.i.M.m.M.u.u.u.u.u.u.",
"E ~ ! ~ ~ ( y.( ( y.) m.u.) t.u.i.u.u.i.u.u.y.m.m.u.u.y.u.) w.q./ u.i.u.y.t.u.t.i.N.N.N.N.B.C.B.V.V.",
"~ W ( ^ y.^ ( ^ ^ ( ( ( ( ~ ~ ~ ! ~ y.~ ~ ~ ( ~ ~ ~ ~ E E y.! E ( ~ ( ( u.^ u.t.i.t.t.u.i.i.i.N.V.i.",
"t.^ ^ t.t.^ t.W ~ ~ ~ ) ( u.t.( ( ( ~ ( ~ y.( ~ ( ( y.y.y.( ( t.u.) u.m.i.m.m.N.N.N.N.V.V.V.V.V.V.V."
};
