/* XPM */
static char *result[] = {
/* columns rows colors chars-per-pixel */
"50 50 227 2 ",
"   c #5B503D",
".  c #594B38",
"X  c #6E5533",
"o  c #61523C",
"O  c #6D5B3E",
"+  c #6A5639",
"@  c #715B3B",
"#  c #775D37",
"$  c #644F34",
"%  c #7B633C",
"&  c #76613C",
"*  c #3C464D",
"=  c #3F4A52",
"-  c #394551",
";  c #444A4D",
":  c #494D4C",
">  c #494B48",
",  c #4E514E",
"<  c #53534C",
"1  c #5B5446",
"2  c #454E53",
"3  c #4B5254",
"4  c #4F5659",
"5  c #535552",
"6  c #5C5B53",
"7  c #5B5E5A",
"8  c #54595A",
"9  c #655A43",
"0  c #6A5C44",
"q  c #635C4C",
"w  c #625641",
"e  c #735F40",
"r  c #615E52",
"t  c #5F625D",
"y  c #6B634F",
"u  c #756343",
"i  c #796442",
"p  c #72654B",
"a  c #7B6A4A",
"s  c #79684A",
"d  c #6C6553",
"f  c #6F6856",
"g  c #64645D",
"h  c #6C695C",
"j  c #676356",
"k  c #716752",
"l  c #746A53",
"z  c #7C6E53",
"x  c #736C5A",
"c  c #7E7155",
"v  c #7B715A",
"b  c #5C6161",
"n  c #6C6C64",
"m  c #6C6E6A",
"M  c #656762",
"N  c #726E62",
"B  c #6F726D",
"V  c #747165",
"C  c #74746C",
"Z  c #7C796D",
"A  c #7B7564",
"S  c #797970",
"D  c #845F2D",
"F  c #886534",
"G  c #8A6C3E",
"H  c #886938",
"J  c #916E39",
"K  c #94713C",
"L  c #99723C",
"P  c #87602D",
"I  c #846B44",
"U  c #8C6E41",
"Y  c #826E4C",
"T  c #8E7244",
"R  c #85714C",
"E  c #8A734C",
"W  c #9D7944",
"Q  c #917548",
"!  c #94794C",
"~  c #997D4D",
"^  c #977544",
"/  c #837354",
"(  c #8A7653",
")  c #8D7954",
"_  c #86795D",
"`  c #8C7B5A",
"'  c #82765B",
"]  c #937C54",
"[  c #997E54",
"{  c #927E59",
"}  c #A17D46",
"|  c #847B65",
" . c #8A7E63",
".. c #847D6A",
"X. c #897F6D",
"o. c #817D71",
"O. c #9B8155",
"+. c #9C855C",
"@. c #99855C",
"#. c #A5824B",
"$. c #A38553",
"%. c #AC8B55",
"&. c #A48A5C",
"*. c #AC8E5C",
"=. c #A58858",
"-. c #B2925C",
";. c #BA975C",
":. c #AB905F",
">. c #8E8266",
",. c #8C826B",
"<. c #85806F",
"1. c #948463",
"2. c #998663",
"3. c #93866A",
"4. c #9A8A6B",
"5. c #9B8A66",
"6. c #858274",
"7. c #8A8473",
"8. c #88877C",
"9. c #9B8E73",
"0. c #958D7A",
"q. c #9B927C",
"w. c #9E9174",
"e. c #A38D64",
"r. c #A98F63",
"t. c #A08E6A",
"y. c #AB9263",
"u. c #A3916E",
"i. c #AA946B",
"p. c #A79167",
"a. c #B49764",
"s. c #B69966",
"d. c #BB9B64",
"f. c #B39B6B",
"g. c #BB9D6A",
"h. c #B39667",
"j. c #A39373",
"k. c #AD9A74",
"l. c #AD9D7C",
"z. c #A59676",
"x. c #B29F7B",
"c. c #B39C72",
"v. c #BEA16D",
"b. c #BDA372",
"n. c #B5A17B",
"m. c #BBA57A",
"M. c #B7A176",
"N. c #C09E65",
"B. c #C2A36D",
"V. c #C2A067",
"C. c #C1A674",
"Z. c #C4A976",
"A. c #CAAB74",
"S. c #C5AB7B",
"D. c #C9AE7C",
"F. c #C3A77A",
"G. c #CCB17E",
"H. c #D1B37C",
"J. c #9B9382",
"K. c #949287",
"L. c #A59A83",
"P. c #A49D89",
"I. c #A69B82",
"U. c #ABA18C",
"Y. c #ADA286",
"T. c #B3A483",
"R. c #BBA984",
"E. c #B4A68A",
"W. c #BBAB8B",
"Q. c #B7A989",
"!. c #BBAE92",
"~. c #B7AC95",
"^. c #BFB094",
"/. c #BDB39B",
"(. c #C5AD82",
"). c #C1AE8A",
"_. c #C9AF81",
"`. c #CBB283",
"'. c #C4B28E",
"]. c #CCB58A",
"[. c #CFB98D",
"{. c #C5B087",
"}. c #D2B684",
"|. c #D1B789",
" X c #D3BB8C",
".X c #D9BE8D",
"XX c #C0AF90",
"oX c #C3B495",
"OX c #C8B794",
"+X c #CCBA94",
"@X c #C5B89B",
"#X c #CCBB9A",
"$X c #C5B69B",
"%X c #D3BD93",
"&X c #D2BF9A",
"*X c #CDBEA2",
"=X c #D6C197",
"-X c #DAC295",
";X c #D6C199",
":X c #DAC49B",
">X c #DEC89D",
",X c #E2CA9D",
"<X c #E3C89C",
"1X c #D4C3A3",
"2X c #DCC6A1",
"3X c #DEC9A4",
"4X c #DECCAA",
"5X c #D7CBAF",
"6X c #DFD0AD",
"7X c #DFD1B1",
"8X c #DBCEB1",
"9X c #E2CCA5",
"0X c #E2CDA9",
"qX c #E8CFAA",
"wX c #E6D1A6",
"eX c #EAD2A4",
"rX c #E4D1AC",
"tX c #EAD3AC",
"yX c #F1D9AE",
"uX c #E4D5B3",
"iX c #EAD6B1",
"pX c #ECDAB4",
"aX c #EBDBB9",
"sX c #E6D8B4",
"dX c #F1DAB4",
"fX c #F5E2B9",
"gX c #EADEC0",
/* pixels */
"(.;X:X:X=X:X:X:X:X:X&X<XoX@.}.4X0X2X&X.Xv W.9X2X2X4X0X0X4XA.+.W.&X2X3X2X2X2XOX` S.%X;X:X>XD.=X>X>X:.",
"C._.2X:X=X:X:X=X:X-X&XeXx.z C.`.9X:X;X|.@.%X3X2X2X2X2X2X4X%X@.W.qX2X2X2X3X9X3X1.%X%X=X4X`.s.v.m.[.:.",
"S.b.`.:X:X-X=X=X-X:X&X|.! k Z.C.].3X-X_.` =XrX3X2X>X2X2X2X0Xj.t.9X:X2X3X[.2X%X_ ;X=X:X[.v.Z.C.b.v.+.",
"v.S.b.S.D.].=X:X&X%XD.C.U k Z.F.S.:X:X(.k :XrX0X4X4X3X:X>X9Xx.t.0X2X2X[.b._.2Xv W.=X}.B.Z.b.C.Z.Z.O.",
"O.D.Z.Z.m.b.`.=X|.S._.C.U r A._._.>X<Xp.6 %XaXuXsXsXuX6X3XqXT.z.9X.X`.C.Z.Z.:XV u.,XD.v.b.b.b.v.V.) ",
"1 s.D.m.D.A.A.C.g.a.%.J w ; T *.y.h.=.9 ; S. XS._.[.:X3X&X}.t.{ %.^ J F F -.}.A 6 &.O.#.} W K H & , ",
"= y e.$.! % & O 0 w   r C o.0.I.x.j.3.Z N z 0 9 O H R R E ! s 6 > ; < : : q ( k 7 d l u O c O.@.w.>.",
"n OX2X2X#XJ.3 ,.1X$X@X2XqXqXqXqX0X0X0XqX9X0X,.4 ~.1X#X;X1X3X4X#X0.8 < ) e.@.+.y.Z.H.=X].N 7.tX>X-Xa.",
"m.,X3XrXqXdX@X4.wX9X9X2X&X9X&X&X2X3X3X2X2XrX@.5.iX;X=X-X=X=X;X2XeXQ.s A.D.D.Z.S.2X:X;X9X'.L.0X[.b.E ",
"].>X3X4X0X3XrX1.(.3X:X2X9X&X9X9X2X[.+X2X3X>XR _ >X+X%X=X=X%X[.[.=X).( D.C.Z.F.>X0X3X<X9X&XoX9X_.v.+ ",
"D.:X3X0X9X0XrX/ f.0X:X2X9X9X9X%XS.b.b.`.=XwXj.c -X%X=X;X:X:X:X=X>Xc.! S.S.S.;X0X9X0X0X0X&XOX9X&Xa.@ ",
"b.>X3X0X0X4X;X' OX0X4X3X&X&X].F.S.D.S.S.(.>XW.a H.%X;X:X:X=X:X=X9Xf.~  X;X2X3X9X0X0X0XqX'.Q.0X3XZ.% ",
"f.-X0X0X3X=X`./ c.D.F.g.*.%.} } L W $.B.Z. X].c m.=X=X=X>X:X:X:X>X&.! >X:X<X:X:X2X0X0XqXl.q.0X2X X% ",
"@.Z.:XrX:X:X`.k E ~ I Y Y E E e 9   o % O.O.O.z G.=X=X3X=Xb.`.;X3X+.u N..X X%X%X XrX0XyX,.C qX3X:XR ",
") Z.Z.:X:X;XG.j E.&X&X0XuXuX8X8XQ.j u.T.j.1.,.>.-X=X:X3XZ.v.v.M.}.=.; 1 R [ %.N.N. X9X'.; B 9X+X%XO.",
"c Z.b.].3X:Xb.V 9X9X9X2X0X0XuX%XV.) s.-X,X3XtXl.=X=X;XD.v.Z.Z.b.B.] C P.z.l. .q z { r.X.V 0.W.,.Z j ",
"v Z.b.`.:X>Xk.5.0X&X2X2X&X9X3X2XG.l ! Z._.:X0XI.R.-X`.b.Z.C.C.Z.C.O.OXeX>X9XrX7.Z 4X;X4XiXiX0XuX=Xt.",
"z D.D.D.3X-X] 1.0X3X2X2X9X:X&X4X>Xk X B.C.+XrXU.t.,X`.B.v.b.v.d.;.E '.%X].[.=XW.W.eX2X>X2X2X4X0XG.a.",
"< ! h.a.a.#.1 1.tXqX0X3X&X9X2X2X9X .X d.`.2X9X!.j E T K K J J F 0 5 (.%X%X+X:Xb.(.0X2X2X2X:X2X2X4Xb.",
"8 v a ] p.i.v >.iX0X0X0X3X9X2X3X,X .# C.:X3X9X!.3 V | 5.i.i.9.7.m 6 a.S.]. X-Xi.{.iX4X3X2X2X2X2X2X[.",
"9.tX:X3X2X.X+.' wX4X7X4X0X0X3X:X9X| % }.2X>X0XL.z.tX9X0XrXuXuXwXD.( M.Z.S.|..X` ).iX4XrX4X3X2X:X3X[.",
"T.0X3X%XS.B.R v tXsXuXsXsXuXuX5XtXX.i -X2X:X0X4.(.0X2X;X:X:X2X2X%X1. X_.].%X%Xl T.aXuXuXsXsXuX9X4X:X",
"oX9X:Xb.S.%.. h Z.*.$.-.F. X|.D.d.s [ 9X0X9X0XV Q.aXuXuX0X4X2X2X9Xw.].%X%X%X Xh i.}.g.b._.%X;X%XG.v.",
"*X3X3X`.S.} o 4 l / ( I @ e i Y u < @.R.x._.qXn i.9X%X;X3XrXwX3X<X3.(.;X[._.`.r 6 q 0 O i I R / u o ",
"&X3X2X2X].%.$ P.3X5XrXw.3 P.*X*X$XJ.5 ; : , V M ..1.` ( ) ` ' k u , k &.*.#.s * = = * 8.1X@X;X;X@X7.",
"XX9X2X2X:X-.@ OX9X2XqXk.1.eX9X0XqXdX$X..*XoX$X&X2X4X0X*X&XT., X.q.L.U.!.%XW.J.o.M n 7 n.>X=X=X=X-X>X",
"L.0X:X2X3XB.+ #XqX2X9XR.k.>X>X0X0X*XiXz.].qX9X9X4X>X|.%X0X{.p 9XtXwXtX0X3X9X0XqX3XtXR.1.=X=X:X:X:X].",
"C 3X3X9X0X}.e #XaXuXtXoXk.>X:X0X0XqXqX4.(.9X%X`.F.a.a.B.`.>X/ (.0X&X|.%X3X2X2X&X2X>X>.` =X=X:X:X3XS.",
"S tX%X(.OXF.Y 4.h.n.(.e.i.:X2X0X0XqXiX4.z ( / E E / / ( +.1. .:X%XS.F.S. X2X3X3X3X,Xc ,.-X>X}.v.].M.",
"7 7.X.'  .X.| A v z v < e.<X3X0X0X&X.X ...#X+X4X0XuX8X5X#Xd A <XS.B.a.-.-.B.S.|.=X,X| 6.,X[.b.Z.Z.-.",
"* 8.uX0X9X9X9X9XqX0XpXW.{ `.0X0X9X&X X` oXqX3X3X4X0XwX4XA.+.d +.&.Y o . $ # O u Y O.f g -XZ.v.Z.V.+.",
"4 1X,X%X=X;X=X%X&X%X9X#X/ N.|.9X2X&X].e.&X2X2X:X2X>X3X4X X` M R.#X*X/.P.B 2 = * , 5 6 < / T K G % < ",
"8.wX=X;X=X;X:X>X;X;X>X#Xv v.Z.%X2X:X`.@.%X4X2X2X2X2X2X2XwX5.n.eX9XqXqXtXyXV m @X#X+X%X=XOX=X+XOXT.7 ",
"n. X>X:X:X:X;X=X>X;X>X&Xz v.S.S.>X:X_.` :XrX6X3X:X2X2X2X3XM.f.3X>X4X0X4XtXv /.fX4XrX3X3X3X4X4X7XfXj.",
"b.Z._.=X%X=X;X;X=X%X Xy.p b.S.S.:X:XS.z >XrX6XrX0X2X>X2X9Xn.@..X0X0X3X:X|.>.1X;X=X:X=X=X=X=X=X=XrXl.",
"O.D.S.S.D.}.-X;X XG.A.W d C.S.S.:X>Xi.6 =X6X6X6X4X7X3X;X0Xl.c Z.`.2X:X:XD.w.rX=X-X:X=X;X:X:X-X:XrXk.",
"; ( i.:.&.O.O.[ ] R u 1 ; Q g.B.S.V.s < %XsXrXsXsXsXuXrXrXW.d A.F._.2X>Xm.T.9X%X=X:X:X=X=X:X=X:X3Xn.",
"8 b t g ,.w.L.E.W.!.P.P.0.3.{ s u 0 3 < M.v.%.-.b.%X=X`.v.) r v.S.D.-X-Xr.oX3X;X:X:X=X:X:X:X:X=X>X^.",
"].rX3X3XrXrXtX9X9X9X0XwX0XwXwXh - 2 4 5 q p s i # @ O u I l 7 / @.+.2.s d Z.%X>X=X=X:X:X=X:X:X=X3XR.",
"l.3X:X2X:X:X2X2X2X0X3X3X2X3X%XY Y.#X'.OXOXOX#XOX!.q.h oX1X1X:X;X&X&X2XK.7 S.Z.=X>X:X:X=X:X=X:X:X.X@.",
"z |.2X2X2X>X2X3X3X%XS. X2X4X%XY S.>X%X;X-X>X:X:X=X<X5.2X9X-X:X-X:X-X-X6XA b.Z.Z.`.[.=X=X-X:X:X].v.T ",
"k |.4X:X2X2X3X:X`.C.C.C.`.&X9X1.&.%X%X:X2X%X X%X3X_.` ;X&X:X&X%X:X:X:X=Xj.y.D.m.b.b.Z.[.:X XS.S.g.G ",
"N 9X9X9X>X%X[.S.C.F.S.D.S.S.,Xj.x.9X&X&X].v.C.C.G.v.a g..X<X9X<X=X=X`.H.5.a A.S.D.G.D.G.}.G.S.Z.%.& ",
"k N.s.r.$.W ^ J P D F ^ g.C..Xk.x |.}.g.d.d.d.a.-.[ < e [ +.p.i.:.:.h.e.6 > O.v.-.&.O.O.T G % X o 3 ",
"r z / ( ) O.O.O.{ ' v s a ) R c 2 : < q p p k q j M m C Z X.7.X.<.<.A N g t 3 > y >.c >.>.3.7.V 3 = ",
"* 8.gXuXtXrXrXrXiXtXuXiX,.2 q.!.oXU.o.2 ..4X*X#X1X2X9X9XqX0XqXtXwXrXwX3X3X-Xf V 6XwX3X3XwXrXtXtXOX..",
"; /.tX%X>X;X=X=X=X:X:XaXT.4.eX0X0XiXyX@Xx C.9X>X2X2X2X2X2X2X2X%X].[.=X:X6X=Xu >.,X=X[.=X=X].=X[.:X-X",
"8 1X>X;X=X;X:X:X=X:X=XrXm.M.>X2X0X4X3XdX,.i.tX0X9X9X3X>X<X%XD.S.Z.D.D.].=XwX4.z -X=X=X=X=X=X=X=X=X].",
"C 0X=X;X;X:X;X:X>X=X>X0Xm.f.3X2X0X0X0XiX .5.g.f.t.&.[ ~ W U U U T ~ %.s.v.[.k.c |.=X=X:X:X=X:X=X>Xb.",
"P.9X=X;X;X;X=X:X;X:X&X<X'.p.>X3X9X0X2X=X_ h t.t.j.z.L.I.q.,.6 : : , h 3.| f 6 a Z.=X=X=X>X:X:X;X>Xf."
};
