/* XPM */
static char *result[] = {
/* columns rows colors chars-per-pixel */
"50 50 101 2 ",
"   c #244525",
".  c #2E4E2A",
"X  c #26542C",
"o  c #2D562D",
"O  c #2B5B2E",
"+  c #32542C",
"@  c #345A2D",
"#  c #395F2F",
"$  c #2F5B31",
"%  c #375C31",
"&  c #395F30",
"*  c #375A38",
"=  c #3A5E39",
"-  c #34642F",
";  c #2E6033",
":  c #356233",
">  c #3C6533",
",  c #3C6C35",
"<  c #376238",
"1  c #3C633B",
"2  c #3E6B39",
"3  c #367134",
"4  c #3D7336",
"5  c #3E7A37",
"6  c #3E733A",
"7  c #3F7839",
"8  c #406737",
"9  c #416D36",
"0  c #41673E",
"q  c #426C3B",
"w  c #427537",
"e  c #427937",
"r  c #44743A",
"t  c #48753B",
"y  c #447C39",
"u  c #4A7C3C",
"i  c #416440",
"p  c #456B42",
"a  c #4A7343",
"s  c #4E7D42",
"d  c #517E45",
"f  c #46823A",
"g  c #4C833C",
"h  c #4D8A3D",
"j  c #50853E",
"k  c #518B3E",
"l  c #4F933F",
"z  c #52933E",
"x  c #59993F",
"c  c #4E8241",
"v  c #528442",
"b  c #548C42",
"n  c #598C46",
"m  c #598449",
"M  c #578D48",
"N  c #5B8C4B",
"B  c #559441",
"V  c #599543",
"C  c #569A42",
"Z  c #5B9C44",
"A  c #5D954C",
"S  c #5E9C49",
"D  c #61944F",
"F  c #629D4B",
"G  c #649552",
"H  c #669C51",
"J  c #699A56",
"K  c #5DA345",
"L  c #5FA946",
"P  c #5FA248",
"I  c #60A546",
"U  c #62AA47",
"Y  c #62A34A",
"T  c #64AD48",
"R  c #69AC4E",
"E  c #64B147",
"W  c #66B349",
"Q  c #69B54A",
"!  c #6EBE4C",
"~  c #70BF4D",
"^  c #6AA553",
"/  c #6CAF51",
"(  c #6EA159",
")  c #6CB350",
"_  c #70BA50",
"`  c #6FC04D",
"'  c #70C04D",
"]  c #B6B6B6",
"[  c #BABABA",
"{  c #C0E2B2",
"}  c #C3C3C3",
"|  c #CBCBCB",
" . c gray84",
".. c #D8D8D8",
"X. c #E2E1E2",
"o. c #E8E7E8",
"O. c #EDECED",
"+. c #F0EFF0",
"@. c #F3F2F3",
"#. c #F7F6F8",
"$. c #FFFFFF",
/* pixels */
"! ` ~ ! ~ ` ` ` ~ ~ ! ~ ~ ~ ' ! ' ~ ~ ~ ! ` ` ! ` ` ` ` ` ` ` ` ! ` ` ` ` ` ! ' ` ! ! ` ~ ! ` ~ ~ ! ",
"W S Z Z S S Z K K Z C Z Z S F Z z Z S Z S S S C C S S A S C A C Z V S P K P K Z K Y P K Z Y K K K Q ",
"C w q r r j g w w j g u g g u t r t r 6 6 6 r 6 6 6 6 6 6 6 6 r t 9 9 w g g t h h w w j g r t w w I ",
"C r 9 g g u j j t x Z j t g j u r 2 2 6 6 6 6 7 6 6 6 6 6 6 6 2 2 t u u s t b S k t v j u j t 9 y I ",
"V 9 9 z u r t e u z x j g e w , , , 3 w w 7 6 6 6 f y r 7 7 6 6 w , , e w h k Z k u e t u j h > w I ",
"z > > 9 f U W W E E Q E E E E U W T T T E T E T W W W W W T W W E E U T W W E W E Q T W I e > # , U ",
"C w 9 > h Q ~ ~ ! ' ! ' ! ' ' ' ! ' ! ! ! ' ' ' ! ` ` ` ` ` ` ` ' ' ' ' ' ' ` ` ' ` ' ' E u , , t U ",
"Z b 9 8 z ! ~ ~ ' ! ' ' ! ' ! ` ! ` ! ` ! ! ` ' ~ ~ ` ~ ~ ~ ~ ` ! ~ ! ! ~ ~ ! ! ~ ! ! ` Q j 8 t b U ",
"Z u 9 w U ` ` ! ` ! ` ! ' ' ` ` ! ~ ~ ~ ~ ~ ~ I C C T ~ ~ ! ~ ! ` ! ' ! ` ! ! ! ' ! ' ! ~ Z w r h I ",
"Z w e z Q ! ` ` ! ! E Q U Q ` ` ' ! ~ ~ ~ Q x Z Y Y V K ! ~ ~ ! ! ` ! ' Q ! ! ! ! ` ! ' ! Q h w u K ",
"K w B Q ! ` ! ` ` L e K e U ' ' ! ' ~ ~ Q x H ( J J ( S I ~ ! ' ! ! ! ! h I l K ' ~ ' ! ~ ! W j u I ",
"I u U ' ' ! ' ! ' K 5 x 4 I ' ! ` ! ~ ~ I Y G d s d m J Z E ' ! ! ! ! E 4 x 4 x ' ! ! ` ! ' ' Z g T ",
"I t I ' ~ ! ! ' ' K 5 x 4 I ! ` ! ' ` Q F D t a p a d d H F ! ! ` ! ` E 5 x 4 K ' ' ' ` ~ ~ ' x g U ",
"K e K ' ! ' ` ' ` K 4 e , f x U ~ ! ! U H d a i i i p d N F E ' ! ` ' E 5 h 4 h I Q ! ` ~ ~ ~ z f U ",
"K u K ' ! ` ! ' U f , 4 4 , , h ! ! ! Z N a 1 9 8 = = p d D I ~ ` ! ! x 4 , , , , k Q ' ~ ~ ' z g U ",
"Z u x ' ! ` ' Q f , , e 4 e , f ! ! E F d 0 t ) Q Q Z 8 a n I Q ` ` x , , 4 4 e , y Q ' ~ ~ ' x u U ",
"x w K ' ` ! ` L 4 y 5 K e z 4 h ! ~ U V a = Z ' Q ! ` s i v S ) ` ! e 4 4 z 5 h 4 e Q ' ! ` ' z w L ",
"x 9 K ' ! ` ` l 3 B y K 5 Z 4 h ! ! I n 2 t Q ' W Q ` W 2 a A T ` K , h y K y C f e Q ' ' ! ' z w U ",
"K u K ' ` ! ` h y K y K e K y C ~ ~ F u 1 C Q ` Q Q ! Q v p M U ' x , K y K f C f f ! ' ! ' ~ C g U ",
"U j L ` ! ` ` f e Z y K 7 U E ! ' Q F u 1 P W ` Q ! Q Q b 0 M K ! z 4 K y K y C K I ! ' ~ ! ` K z U ",
"K j I ' ` ` ` f , h y K w U ' ` ' Q D t 8 F W ` W ! W ! b 0 v Y ` l , z y K y C ' ' ` ! ` ! ` Z k I ",
"I x I ' ` ` ` l , 4 e K e U ' ` ' Q z t > Z Q Q Q Q W Q v 0 v S ` z 3 w 5 K y K ` ` ` ` ! ` ` K x R ",
"x g I ' ` Q Q L , , 4 f w U ' ! ' Q z q = b ! W Q Q W _ u 0 s Z ! L , , , z y C ` ! ! Q ! ` ` C g I ",
"Z u K ' E l K Q 5 , , , , f W ! ' Q z q = c ! W Q Q W ! q 0 u F ! ! 5 3 , , , h ! ! ! K C Q ` x t I ",
"I x I ' K f h E L 3 3 4 , , h ! ` Q b q = r Q W Q Q W L 0 i c S Q ' K 3 4 4 , , h ! E f h L ! K z U ",
"K b U Q h f f L ` x 5 5 4 , 4 L ' Q B r 1 0 T W W W W C < i c Z ! ` ` l 4 4 4 , 4 L K y f z ! K k I ",
"K j I ! l h h K ' T f K y 4 , B ' Q B r 1 = V Q E E Q c 1 2 c K ! ` ` W f x f 4 , h K f h l ! x j I ",
"I g K ! C 5 h L ' I y I f y , g ! ! Z u 1 1 t Q E E W 6 1 p c K ` ` ` W y K g 5 4 y Z f h C ! x j E ",
"K t K ' K 4 f E Q L y L f B 4 f ! ! S u > 1 1 I ~ ' V = 1 p b T ` ` ! E y K g h 5 w L y e L ' x u U ",
"Z w K ' ! K K f z K f I y S e g ! ` U j q 1 1 B ~ ) j 1 1 p b W ` x z T f K h z f w W K K Q ' x t U ",
"Z w Z ' ` ` L 3 k L f I f z 4 k ' ' W B r % t u u u v 8 > u Z ! Q e f U y K f x u e Q ! Q ' ! z w I ",
"C w K ` ` ` T 3 g K f I y y , Z ' ' Q V t > = = * * = = q g F ~ W e f U f K f h 4 h ` ` ! ! ~ x e I ",
"K u K ' ` ' L 7 , h y B e , w W ' ! ` I g r > 1 1 1 1 2 t z R ' Q y w z f Z h 4 , Z ' ! ` ! ' V g U ",
"K u I ' ` ' L 5 r , , 4 , , h ! ~ ' ` W z t 9 : < < 2 q j Z Q ' E y 4 4 4 w , , e E ` ! ! ' ' C g U ",
"I w I ' ` ` Q h 5 3 4 3 , h W ' ~ ! ` ! F k 9 9 , 9 q t B I ~ ~ Q f 3 4 4 , , e Z ` ! ` ~ ' ' C u U ",
"I w K ` ` ` ` ' W K y C 7 U ' ` ! ! W B I x k u r r t V x I z Q ` ! K z 5 h 4 z ! ` ` ! ~ ' ' z u T ",
"Z u j U ` ` ~ ! ' E f L y T ! ! ~ ! V v b F b V z V V m R j v F ` ! ! ! y K y Z ' ! ! ~ ! ! K g u I ",
"x u y j W ` ! ~ ' Q E ! T ! ! ` ' Q s > r v t w u u t u A r q k ! ` ! ! Z W C W ! ! ~ ! ! U c u u I ",
"x u 9 > Z ) ! ! ' ~ ` ! ' ' ` ! ! Y :   + % + + + + + + % .   r Q ! ! ~ ' ` ' ` ' ! ~ ~ R j > 2 f K ",
"C u 9 8 u S ) ! ! ! ! ! ` ' Q ! / n : $ % o o % + + & % + o X 2 F ~ ! ! ` ! ! ! ! ! ~ Q N e > w v K ",
"V t 9 9 u g D H R ! Q ' ~ ~ R F M u < ; % > : > & > > : : @ $ 2 u A ^ ) ~ ~ ' Q ) ^ ^ N y u 2 q s K ",
"B , 9 r e t t w g C I z C b u s w > : o r c s c s s g c c 2 O : : r t u B x z K b u y t u r r 2 r K ",
"C q r v t r w w t k S u t > > > % : $ o 6 7 6 6 6 r 7 6 6 6 o X X O 8 > 9 t g F g r r w 9 t v 9 r K ",
"Z r 2 9 v g k j j V x t 9 t t r , o X 3 6 6 2 6 6 6 6 4 2 6 : X O : w u w 9 u x V c j j j j : 2 y K ",
"Z y 7 y h j h f f h f u f h g j u y y y y y y e 7 y y f y y e 4 - w h f h u u g g f f h j f e t f I ",
"! E T T E E U Q E Q W E Q E E E W Q ! W W Q W ! W W W Q W ! W Q W W Q W Q E W E W Q W E Q E E Q E ! ",
"{ { { { { { { { { { { { { { { { { { { { { { { { { { { { { { { { { { { { { { { { { { { { { { { { { { ",
"$.$.$.$.$.$.$.$.$.$.$.$.$.$.$.$.$.$.#.@.@.@.@.@.#.#.@.X.X.X.o.+.$.$.$.$.$.$.$.$.$.$.$.$.$.$.$.$.$.$.",
"$.$.$.$.$.$.$.$.$.$.$.$.$.$.$.$.$.$...] ] [ [ | } |  .] } | }  .$.$.$.$.$.$.$.$.$.$.$.$.$.$.$.$.$.$.",
"$.$.$.$.$.$.$.$.$.$.$.$.$.$.$.$.$.$.@.O.O.O.O.O.O.@.@.o.O.@.+.@.$.$.$.$.$.$.$.$.$.$.$.$.$.$.$.$.$.$."
};
