/* XPM */
static char *result[] = {
/* columns rows colors chars-per-pixel */
"50 50 146 2 ",
"   c #0A1E26",
".  c #071E2D",
"X  c #091F28",
"o  c #0B1C36",
"O  c #0D1D3A",
"+  c #07202E",
"@  c #0B232D",
"#  c #0F282F",
"$  c #1D2F2E",
"%  c #072231",
"&  c #0A2534",
"*  c #0B2936",
"=  c #0C2239",
"-  c #0C2C3B",
";  c #112533",
":  c #1A2E32",
">  c #102D38",
",  c #0E313E",
"<  c #113036",
"1  c #1D3233",
"2  c #12323D",
"3  c #2C3526",
"4  c #24322D",
"5  c #2B352B",
"6  c #2E382A",
"7  c #323C2D",
"8  c #233430",
"9  c #2C3A31",
"0  c #373F32",
"q  c #364133",
"w  c #3A4335",
"e  c #3D4639",
"r  c #3F493A",
"t  c #434C3E",
"y  c #47503E",
"u  c #0F1C42",
"i  c #0F2241",
"p  c #0E2E40",
"a  c #112D45",
"s  c #142C4A",
"d  c #0F3242",
"f  c #113544",
"g  c #123946",
"h  c #1A3B44",
"j  c #13364A",
"k  c #18334E",
"l  c #143C4B",
"z  c #183E4D",
"x  c #172C53",
"c  c #192E56",
"v  c #1A235D",
"b  c #192E59",
"n  c #173156",
"m  c #183057",
"M  c #153E51",
"N  c #1C3D56",
"B  c #1A325B",
"V  c #273247",
"C  c #2F3844",
"Z  c #353E41",
"A  c #212C51",
"S  c #26365C",
"D  c #1A2461",
"F  c #192F61",
"G  c #1D2B6C",
"H  c #1C3263",
"J  c #1F2F70",
"K  c #212E6C",
"L  c #293867",
"P  c #2A3B6F",
"I  c #233175",
"U  c #263973",
"Y  c #24337B",
"T  c #293B7C",
"R  c #16414E",
"E  c #19424F",
"W  c #164253",
"Q  c #194455",
"!  c #1A4957",
"~  c #194659",
"^  c #1B4A5B",
"/  c #3B4443",
"(  c #3F4C4B",
")  c #3F4C54",
"_  c #3B495E",
"`  c #1D4E60",
"'  c #1E5163",
"]  c #26456D",
"[  c #2B466E",
"{  c #364769",
"}  c #39476B",
"|  c #205363",
" . c #2C4974",
".. c #334474",
"X. c #33437F",
"o. c #444E41",
"O. c #414D48",
"+. c #475142",
"@. c #4A5345",
"#. c #4D554A",
"$. c #4F594D",
"%. c #515B4D",
"&. c #414D50",
"*. c #535C52",
"=. c #263780",
"-. c #263A83",
";. c #2A3C84",
":. c #2B3D8B",
">. c #2C3E92",
",. c #2D4185",
"<. c #2D428C",
"1. c #334584",
"2. c #31458C",
"3. c #334A8B",
"4. c #355185",
"5. c #3B598D",
"6. c #2D4393",
"7. c #2F4896",
"8. c #2D4998",
"9. c #314495",
"0. c #334C94",
"q. c #32449B",
"w. c #354B9C",
"e. c #384C9F",
"r. c #365295",
"t. c #385397",
"y. c #35529D",
"u. c #39559C",
"i. c #3E599B",
"p. c #3445A0",
"a. c #364DA0",
"s. c #394DA2",
"d. c #3755A3",
"f. c #3C52A3",
"g. c #3C5AA4",
"h. c #395AAA",
"j. c #435F9C",
"k. c #4156A6",
"l. c #415CA1",
"z. c #4156A9",
"x. c #445AAB",
"c. c #485EAF",
"v. c #495EB2",
"b. c #4664A5",
"n. c #4362AA",
"m. c #4A60B3",
/* pixels */
"@ l * l 2 l , g d l g 2 2 - m U 1.3.P B k g g l f l d W l R d g d R d l d l d , - l g W j W R l j l ",
"@ R * l , l d g 2 l f * s Y 8.y.u.t.i.i.3.] j l f l j j d W f l d l j W d l d * - W g W d W W l j W ",
"@ l * l , g f g > j & x <.w.y.y.y.-.<.u.i.g.X.M f z d d - M f g d R d W g l d R d W g ~ j W W l l R ",
"# l * l , l f g * & B 6.w.y.y.y.y.6.w.t.t.g.g.4.j z g M j l f l g W j W d l d W d l g W j Q W W l l ",
"* R * g , R , g . s 1.y.y.y.u.u.8.7.<.0.u.g.g.b.[ N l z j l f l l l d l d l d R p g l ~ j W W W j l ",
"@ , + g , R , - & T w.<.w.w.9.:.;.:.:.:.T t.b.i.j.~ f l f l f l f - & R f W d M d W l ~ l ! W l l R ",
"  @ + g d g * + s 6.y.6.0.<.:.9.q.q.q.p.9.:.b.0.b.5.j l d z j l j g d l W W d W f Q M Q j j Q R l W ",
"# f + g f R % % U r.d.d.<.<.q.q.q.q.q.q.p.q.1.l.b.b.N j d l g E l W f W R f p M a Q ~ ~ j j W W l R ",
"# l + f l l + s ,.d.d.0.:.q.q.q.q.9.q.>.q.q.>.3.l.n.[ j d z j d d M d W j p p W j W W M M ~ W W - & ",
"@ g + g , & + B 0.d.d.:.9.q.q.e.s.s.k.e.q.q.q.T t.n.5.g f l g - & l j W j W d W j W M p j ~ W M l g ",
"@ g + g f * X K y.h.0.;.q.q.s.s.s.s.k.a.e.9.q.:.1.n.l.Q j W g W p l j W l W j W j W M M M W W W W W ",
"@ , + R l - o I d.d.2.9.q.e.s.s.s.s.s.s.s.q.9.q.,.g.n.] g Q l W p l l ~ M W M ~ j ~ W ~ M ~ ~ W W M ",
"@ , % R R * O -.d.h.6.q.q.e.s.s.s.s.k.s.d.a.9.q.,.y.n. .g d - M p j l M d M M ~ M ^ W ~ j ^ ^ W W l ",
"@ R + % * % i <.w.t.<.q.w.s.s.s.s.s.s.s.s.s.9.q.;.8.n.1.g j - W d j l - p M j ~ M p j ~ M ~ j j M z ",
"@ , # , * % i 8.8.<.<.q.e.s.s.d.s.p.s.s.s.s.q.q.<.3.u.4.j ~ j l d l W l d M j W j j j ~ j ~ j p M M ",
"@ R * R - % x 8.d.0.:.q.s.s.s.s.k.k.s.s.s.s.w.q.6.,.<.3.M Q d l d M l W j l p W M ~ M ~ M ~ M W M z ",
"# l * l & o v y.h.0.9.9.s.s.s.a.k.k.s.s.s.s.s.>.>.2.g.r.k R d l d l l z d l d M M ^ M ~ M ~ W ~ M z ",
"# Q * l & % K d.h.w.9.w.s.s.s.s.s.z.s.s.s.s.s.>.9.2.g.t.j l - l f g l l d W d l l W j Q M ` W ~ Q W ",
"@ E * l & % G d.d.9.q.q.s.s.s.a.k.k.a.s.s.s.k.>.9.,.t.t.j g 2 l a f l g j W , z j Q j ~ M ` W ^ ~ Q ",
"@ E * l * & G d.a.6.q.q.e.s.a.w.e.k.e.s.e.e.e.2.q.:.w.0.s j > l , f g g g R d l d Q g ! M ` W ~ ~ Q ",
"@ R * l * = J 8.w.<.q.w.f.e.a.k.c.v.x.e.s.x.k.>.q.;.0.0.j f > g , d g g d l d R d W l ^ M ^ W ~ ~ Q ",
"@ R * g & = J q.u.;.q.w.c.x.d.v.v.v.m.x.x.x.e.9.7.,.6.<.s f - g , 2 j f d R d W d W d ^ M ^ W ~ W ~ ",
"@ R * g & = J <.<.;.6.q.f.c.x.v.z.k.v.v.k.e.e.9.q.;.:.<.k 2 - 2 - , d g d l g d d W d ~ M ` W ~ ~ Q ",
"@ R * R & = J w.6.;.q.w.w.w.c.x.q.e.s.v.k.e.e.9.q.T ;.,.a g - f , , f g , l d - - ~ l ~ M ^ ~ ~ W Q ",
"# R - R * = J 8.7.;.q.w.a.s.v.f.e.f.e.v.z.e.s.9.9.;.Y Y s f - f - d d g d R g R d ~ l ~ j ` ~ ` ^ ~ ",
"# R * R * - Y 8.7.;.q.w.a.f.m.f.u.x.e.x.z.e.e.9.q.T :.:.k f , 2 , g g g , R d W j ~ M ^ M ` ~ ` ^ ~ ",
"< R * R - i Y 8.6.;.q.e.a.s.m.f.w.e.e.c.x.e.e.9.q.T ;.<.j 2 - 2 d , , g d l g W j ^ M ^ M ` ~ ` ` Q ",
"+ - * R * i I w.6.=.q.w.s.s.c.x.w.e.s.v.k.e.e.9.q.;.:.<.s , - g - - % g g R d Q l ^ M ` ~ ` N ` ` Q ",
"  & * R * i Y 8.9.:.q.w.e.s.x.v.k.k.x.v.x.x.e.9.9.<.:.<.n d , g - g , f R W f W j ^ M ` M M M ` ` ~ ",
"* d * l , i Y <.:.:.q.w.k.v.f.v.v.v.v.x.d.c.k.9.q.<.:.6.B d , g , g - g l l d W j ` ~ ' M M M | ` Q ",
"< 2 - l - u I <.:.:.9.e.c.z.w.k.v.v.x.s.w.s.e.9.w.,.-.9.n , , * % g - g f - - W l ^ ~ ^ ~ ^ M ^ M k ",
"< f - l & o J 8.6.;.q.w.f.e.s.a.s.k.a.s.s.s.e.9.q.;.=.T n 2 * * % d - f g R p l j ~ j j M ~ M ^ M W ",
"< , , R % o J 8.6.:.q.w.a.s.s.s.s.z.s.s.s.s.s.9.q.,.-.-.B f , , , , , l g R - l g ~ l Q W ~ l ^ Q ~ ",
"< d , R - O J 6.6.:.9.w.s.s.s.a.s.z.s.s.s.s.s.9.q.1.:.<.B g , , * f * l d l - z g ~ l ` W ^ M ^ R W ",
"< f , l - O G 8.>.-.q.q.s.f.s.a.k.c.a.s.s.s.s.9.w.<.-.6.c - * f - g , , d z - l R ! l ~ j ` ~ ^ l W ",
"< , % * % O G 8.6.-.q.w.s.s.s.s.s.z.a.s.s.s.s.9.9.<.:.:.M , * , , d , * & l - g l l d ~ d ^ W W l W ",
"< , , g * & D 6.0.:.q.q.s.s.s.s.s.e.a.s.s.s.s.9.q.2.;.>.b a , , , l , g * l * g f d d ~ j W j d j W ",
"- d , R & o G -.;.:.q.w.s.s.s.s.s.s.s.s.k.s.s.9.q.3.;.;.x d , f , l , R * R * d g ~ j ~ j ~ W W j W ",
"< , g g & o G :.=.;.p.p.s.s.s.s.s.s.s.s.s.s.s.9.q.0.=.=.b d , , , R , g * R * j g ! f ^ M ^ M W j ~ ",
"< R d R & o D 6.>.;.q.s.s.s.s.s.s.p.s.s.s.s.e.0.q.0.;.>.H f 2 d , l , l - E * g f W d ~ M ` W W l ! ",
"2 g d l * o v 6.>.;.9.w.s.s.s.s.s.s.s.e.s.e.q.9.q.7.-.>.F , f h , l 2 l - Q - j f W l ! R ! l W g h ",
"2 g f g * = D 6.>.=.q.q.s.s.s.a.e.q.q.q.>.0.9.>.q.w.6.6.b > f z g R j l d ! - g d R 2 2 2 h 1 1 4 4 ",
"2 l j g * = v 6.>.=.6.9.9.9.9.>.>.q.>.p.9.q.q.q.q.0.:.6.H d f z f R j g * 2 ; : < 8 4 4 4 5 6 3 3 3 ",
"2 l j g * = v 6.7.=.>.q.q.q.q.q.p.p.p.>.q.p.q.p.w.0.:.9.H > 2 > < 1 1 4 4 5 5 3 3 6 6 6 6 6 6 6 6 3 ",
"2 j l g = = v 8.q.=.>.p.p.p.q.p.s.q.p.p.p.q.q.p.q.0.<.:.S 8 9 7 6 7 7 6 7 7 7 7 7 0 7 7 7 q q 7 q 6 ",
"2 f R g * O v 8.w.;.q.q.q.q.p.p.q.q.p.q.q.9.9.1.....T L C 0 0 0 q q q q q 0 7 q w w q q w w w w w w ",
"2 , g R * = D <.<.-.9.q.q.q.q.9.9.1...} } &.&.O.( / Z w e t e t r r e e e e e e w w e e r w r t / e ",
"< < g g * o D <.6.;.;.X...{ _ ) O.o.+.y y #.#.#.#.$.#.#.@.#.#.#.@.@.#.@.+.+.y y t t r t y y y y +.r ",
"< 2 2 2 ; ; v <.6.U / o.o.o.t y @.@.#.#.%.%.%.*.*.*.*.*.*.*.*.*.*.*.$.$.@.#.@.@.@.+.@.o.o.+.+.+.+.+.",
"@ # $ 4 6 9 V A V 0 e o.+.o.o.@.%.%.*.%.%.%.*.*.*.*.*.*.*.*.%.%.$.$.$.#.@.@.@.@.@.@.@.@.@.#.#.@.@.+."
};
