/* XPM */
static char *result[] = {
/* columns rows colors chars-per-pixel */
"50 50 199 2 ",
"   c #452F0E",
".  c #422F11",
"X  c #453212",
"o  c #4E3716",
"O  c #4F3916",
"+  c #4D3919",
"@  c #513A16",
"#  c #543D1C",
"$  c #553E21",
"%  c #583F24",
"&  c #57401D",
"*  c #58411E",
"=  c #5B451A",
"-  c #574121",
";  c #5C4523",
":  c #5E4825",
">  c #5E4A2B",
",  c #59472B",
"<  c #624B25",
"1  c #624C2A",
"2  c #655126",
"3  c #66512C",
"4  c #6B542C",
"5  c #6E592E",
"6  c #685125",
"7  c #705927",
"8  c #70572D",
"9  c #725A2D",
"0  c #634E33",
"q  c #665434",
"w  c #6B5533",
"e  c #6C5A34",
"r  c #695739",
"t  c #6C5A3A",
"y  c #665538",
"u  c #705730",
"i  c #735D33",
"p  c #785F34",
"a  c #725D3B",
"s  c #78612D",
"d  c #766134",
"f  c #7B6335",
"g  c #7F6837",
"h  c #76613A",
"j  c #7D6539",
"k  c #7E683B",
"l  c #6F5C41",
"z  c #715E40",
"x  c #766346",
"c  c #776348",
"v  c #7B6847",
"b  c #7F714E",
"n  c #7F6B50",
"m  c #816636",
"M  c #826937",
"N  c #816639",
"B  c #836A3B",
"V  c #886C3E",
"C  c #836B40",
"Z  c #8B6F41",
"A  c #816F48",
"S  c #8D7244",
"D  c #84744B",
"F  c #8C7B4E",
"G  c #837047",
"H  c #917546",
"J  c #91794C",
"K  c #917D5F",
"L  c #BC9326",
"P  c #C4971E",
"I  c #C59B1C",
"U  c #CA9E1A",
"Y  c #DDA70F",
"T  c #DEAA0B",
"R  c #CEA31C",
"E  c #D4A514",
"W  c #D3A119",
"Q  c #E2AC0B",
"!  c #F3A401",
"~  c #F6AE00",
"^  c #E9B30E",
"/  c #EAB70E",
"(  c #F6B401",
")  c #F8B602",
"_  c #F7BB01",
"`  c #FABE00",
"'  c #F3BD09",
"]  c #FBBE0B",
"[  c #F4B40D",
"{  c #E1AF10",
"}  c #F3AA13",
"|  c #E2B112",
" . c #F6B710",
".. c #F9BC12",
"X. c #F7BC1E",
"o. c #F7BE15",
"O. c #C59C26",
"+. c #CDA223",
"@. c #D9AE20",
"#. c #F7BF22",
"$. c #F6B82A",
"%. c #F5BB33",
"&. c #E5B824",
"*. c #FBC101",
"=. c #FAC30B",
"-. c #FEC90F",
";. c #FBC513",
":. c #FFCA14",
">. c #FAC41B",
",. c #FBCA1C",
"<. c #F3C113",
"1. c #FFD11F",
"2. c #FBCB24",
"3. c #F7C32B",
"4. c #FAC42E",
"5. c #FBCC2C",
"6. c #FDC426",
"7. c #FFD123",
"8. c #FFD42C",
"9. c #F6C637",
"0. c #FACD33",
"q. c #F9CE3C",
"w. c #F8C838",
"e. c #FED334",
"r. c #FFD832",
"t. c #FAD13D",
"y. c #FFDA3C",
"u. c #94824D",
"i. c #9C8B5A",
"p. c #988856",
"a. c #A38F5B",
"s. c #998463",
"d. c #9E9361",
"f. c #A49462",
"g. c #A79964",
"h. c #AA9A64",
"j. c #AB9C69",
"k. c #B2A36B",
"l. c #B7A96D",
"z. c #BBAB71",
"x. c #BEB073",
"c. c #C3B476",
"v. c #CCBB77",
"b. c #C5B778",
"n. c #CCBA79",
"m. c #C8B574",
"M. c #D0BE74",
"N. c #F8CE43",
"B. c #F6C64B",
"V. c #F7CF4C",
"C. c #F8CE48",
"Z. c #FAD243",
"A. c #FFDE46",
"S. c #FAD44C",
"D. c #FFDE48",
"F. c #F6CB54",
"G. c #FBD851",
"H. c #FFD65D",
"J. c #FBD654",
"K. c #FFE14D",
"L. c #FFE252",
"P. c #FFE45C",
"I. c #D4C27C",
"U. c #DFCD7E",
"Y. c #FBD665",
"T. c #F9D66C",
"R. c #FCDD6C",
"E. c #FFDC65",
"W. c #E3CC79",
"Q. c #EED274",
"!. c #E9D27A",
"~. c #EDD87B",
"^. c #E7D37D",
"/. c #F4D573",
"(. c #F6DF76",
"). c #FCDB72",
"_. c #F1D678",
"`. c #FFE262",
"'. c #FBE06B",
"]. c #FFEA69",
"[. c #FDE372",
"{. c #FBE27B",
"}. c #FFEA78",
"|. c #CBBB80",
" X c #DCCB83",
".X c #D2C381",
"XX c #E4D484",
"oX c #E4D58B",
"OX c #E8D788",
"+X c #EBD885",
"@X c #FBE483",
"#X c #F0E08F",
"$X c #FCE68A",
"%X c #FDEA8D",
"&X c #FBE684",
"*X c #FEEC94",
"=X c #FEEE9A",
"-X c #FFF19E",
";X c #FFF2A2",
/* pixels */
"- - $ # - $ $ $ $ $ $ $ $ $ $ $ % % % # # # # # $ $ $ # $ # # # # # @ # # # # # # # # # # * * * * # ",
"- * $ $ $ $ $ $ $ $ $ $ $ $ $ $ % % % $ - - - - - : ; $ - - $ $ $ $ # # @ # @ # # # # # # # # * # < ",
"# # # # # # # # # # # # + $ $ $ $ $ % # # # & # $ * ; < 1 ; < < ; ; < 1 < < % % = # # # # # # # # % ",
"- : ; : ; ; ; ; ; ; % ; % % % < ; ; < < * & # # # # # = ; ; < ; < ; 1 1 1 1 < < < : : : # < < < < ; ",
"; 1 1 1 1 1 1 ; < 1 1 < ; : : : 1 < # # # 3 a j v h e : @ @ # : < ; ; ; ; ; ; - % < % < # % ; # % # ",
"; ; % ; ; ; ; % ; = - < : : < ; # % A j.I.~.(.[.'.[.(.^.n.a.j # * < < < < : < < < < < < # < % # # # ",
"1 1 1 1 < < < < < < < < 3 3 : 4 f.XX[.A.7.=.*.` *.*.*.-.8.L.{..XF ; ; 1 1 1 1 1 < 1 1 1 1 < < 1 6 < ",
"; 1 1 1 < < < < < < < < < * u.XXP.,._ _ _ ` *.*.*.` ` ` _ _ ` 8.].I.h o ; $ ; - # $ # # # < $ # % % ",
"; 1 1 % < : < < < < 4 < 2 b.}.,._ ` *.*.*.*.*.*.*.*.*.*.*.*.*.` _ 8.&Xg.; 1 1 1 1 1 1 ; < 1 1 1 < ; ",
"w 0 w w 8 9 9 i i f 4 B oXD.` ` *.*.` *.=.` *.` ` *.` *.*.` *.` =.*.;.].|.t a j a a a a a a a a u a ",
"# # $ $ = : : < = & i #Xe._ *.*.*.*.*.` ` ` ] <.<.] ] ` ` =.*.*.*.<.=.*.P..X3 q u w w w w w w w w u ",
"; # % % = # # % & < OX8._ =.*.` *.` _ ;.0.Z.Z.Z.t.Z.C.N.4.' ` *.=.*.=.<.` L.x.  o o @ @ @ @ @ @ @ # ",
"1 1 1 0 3 4 3 3 2  Xy.( *.*.*.*.` ;.S.Z.2.=.*.*.` *.*.;.5.V.w.] *.=.=.*.*._ ].j.# ; % % - ; ; < 1 < ",
"% < % < 1 3 3 < k.`._ =.` *.*.*.0.S.;.*.` ` *.*.*.*.*.` ` *.5.V.X.` *.*.*.` *.}.C % 1 < < < 1 1 0 1 ",
"1 1 1 1 1 1 % p @X` *.*.*.*.` Z.t.` *.*.*.*.*.` *.*.*.*.*.*.` *.S.3.` *.*.*.] ,. X1 u 3 w w t u a a ",
"3 3 3 0 3 8 < n.e._ *.` *.` Z.0.` ` =.*.` ` =.,.<.` ` *.` *.=.*.*.V.3.` *.` *.` H.h.8 a i a a d p p ",
"3 4 5 5 i 6 D )._ *.*.*.` 0.t.` *.*.*.*.` *.>.-XR.! ` *.` *.` *.*.*.V.<.*.=.*.` :.XXf i i i i a p u ",
"< < < 2 < = z.t._ =.*.` -.S.` *.*.` ` *.*.` >.-X).! _ *.*.*.*.*.*.` =.V._ *.*.*._ `.f.i k j k k j h ",
"< < < < = 6 !.=.*.*.*.` Z.>.` *.*.*.*.*.` Z.&X*X*X{.B.[ ` *.*.` *.*.` 0.3.` *.*.*.8.v.< 5 4 4 4 q 3 ",
"4 4 3 4 < F E._ *.` ` ;.Z.` *.*.` ` *.` G.;X;X-X=X;X;XF.! *.*.*.` *.` =.C.` *.*.*.*._.e 6 3 6 3 2 1 ",
"q q w u < k.Z._ *.*.` 0.2._ ` *.*.*.` >.*X-XT.%.0.R.;X%.~ *.` *.*.*.*.` q.>.` *.*.` `.F > q 3 w q 3 ",
"q e t a q n.2.` *.*.` Z.=.*.*.` *.*.` q.-X%X} ( ` ` 5.) ` *.*.*.` *.*.` 2.w.` *.*._ D.i.& 1 > 1 : : ",
"w r a a a W.;.` *.` =.Z.` *.*.` *.*.` e.;X*X$.~ *.*.*.*.*.*.*.*.*.*.*.*.=.N.` *.*._ r.l.# > > > , > ",
"t a z z v !.` *.*.*.;.q.` *.*.*.` *.` =.%X-X$XB. ._ *.*.` *.*.` *.*.` *.*.N.` *.*.` 7.n.q t r a t r ",
"z z t t b Q.` *.*.` 2.4.` *.*.*.*.*.*.` 0.=X;X;X$XF.[ _ *.*.*.*.*.` *.*.*.q.' *.*.*.,.I.l c x x x x ",
"; , , - 3 Q.` *.*.` 2.0.` *.*.` *.*.*.*.` ,.'.=X;X;X@X} ( *.*.*.*.*.*.*.*.N.=.*.*.*.,.I., , 0 y y q ",
"- ; , , r Q.` *.*.` >.0.` ` *.*.*.` ` *.*.*.*.2.'.=X;XY.! ` *.*.` *.*.*.*.N.=.*.*.' 7.I.- , > 0 > , ",
"y y w w r W.] *.*.` ;.q.` *.*.*.*.*.*.*.` *.*.` ` J.;X$X} _ *.*.*.*.*.*.*.N.*.*.*.' 8.x., , > , , > ",
"q q t e q I.;.*.` *.=.Z.` *.*.*.*.*.*.` Z.X.( ` ` t.;X$X} ) *.*.*.*.*.*.<.Z.*.*.*._ y.j.- > , > > 2 ",
"q q q e : x.5.` *.*.` q.;.` *.*.*.` ` 0.;X$XB.#.0.&X;XT.! ` *.*.*.*.*._ 5.3.*.*.*._ L.p.> y y y y r ",
"q q q e > d.J.) *.*.` 2.4.` *.*.*.*.*.5.=X;X;X=X=X;X=X$.( *.*.*.*.*.*.*.Z.<.*.*.*.*.[.b q t t r r q ",
"e e e h e D T.) *.*.*.=.V._ *.` *.*.*.*.,.'.%X*X*X@X%.~ *.` *.*.*.*.*.,.t.*.*.*.*.,.I.l t t t t t t ",
"d d h h h e  X2.*.*.*.*.5.9._ *.*.*.*.*.` ` 5.-XR.! _ *.*.` *.*.` *.` S.<.*.*.*._ A.j., t y y y y y ",
"5 i 5 e d 4 g.G._ *.*.=.=.S.<.*.*.*.*.*.*.` ;.;XT.! =.*.*.*.*.*.*.` 5.t.*.*.*.*.*.[.> . - 0 c b n t ",
"9 5 5 5 5 5 d XX .*.*.=.=.,.F.` *.*.*.*.*.*.=.5.>._ *.*.*.*.*.*.` ,.G.*.*.*.*._ e.c., ; X . - x K i.",
"5 5 5 5 5 5 < g.H.( =.=.=.=.<.O._ *.*.*.*.*.` ` *.*.*.` *.` *.*.,.G.*.*.*.*.*.*.{.b > e z > X . , r ",
"5 5 5 4 5 5 5 4  X4.*.=.*.*.*./ L Y *.*.*.*.*.*.*.` *.*.*.*.*.&.S.=.*.*.*.*.` K.l.3 h e t t t 2 +   ",
"9 i i 9 9 i d 5 F $X .*.*.*.*.*.*.I O./ *.*.*.*.*.*.*.*.*.| +.@.*._ *.*.=._ 7.XXt i h e 5 4 e e h w ",
"d i i 9 d d d f 6 g.).( *.*.*.*.*.*./ +.+.E Y Q Q T E R I R ' *.*.*.*.*.` ;.&XS i k h i e d h i 2 2 ",
"d d 9 i 9 d 5 9 i 6 l.R.( *.*.*.*.*.*.*.=.| E R I R E { =.*.*.*.*.*.*.` =.&Xp.9 f d f f h d d d d h ",
"f h f f d p p p d d 4 z.R.) ` *.*.` *.` *.*.*.*.*.*.*.*.*.` *.` *.*.` :.}.i.7 g s k g s d d k k k k ",
"p d p f p p f f f f d 5 j.@X#.( *.*.*.*.*.*.` *.*.*.*.` *.*.*.` ` _ y.#Xu.7 g f g f g g g k b k B B ",
"d d d d f i f f m j k B 9 J oXY...) ` *.*.` *.` *.*.` *.*.*.` _ 2.[.I.B s M m M g B B g V k B V B B ",
"d f f g f f f g B N B j V p m k.+XH.6.) _ _ ` ` *.*.` ) ` =.0.R. Xa.f M B M V M k V V V V V V B B B ",
"f f g f g f f m f g g m B B M 9 N g.I._.Y.N.w.4.5.5.e.G.R.!.n.a.f f B B M M M m m B N N k B g g g f ",
"d d d f 9 f f p p p p f f d f g p 8 7 C a.k.c.n.v.m.z.h.J p u u j j m m m m m m m m f m k k g g g f ",
"d s s d f p p f f f d f f d f p p N p p 8 8 u u 8 8 8 8 u a j j j j m m M M M V V V N V C C V B V V ",
"9 d s d f f g m g g j m B B N B B B C N C C C C C C C N C p C N C C B m M M V V V S Z Z H H H S H H ",
"f f f g j g M g f f f g g f j j g f j j j j p j j N j j p j j j j N j k k M V B V V V H V V H H V H ",
"f f g g B M g g g f f f j N N j j j p f j j p j j j j f j f p j j N B B B V B S V V V J H H H H S H "
};
