/* XPM */
static char *result[] = {
/* columns rows colors chars-per-pixel */
"50 50 210 2 ",
"   c #3C280E",
".  c #412E0E",
"X  c #422C10",
"o  c #4A3414",
"O  c #4F3818",
"+  c #503917",
"@  c #533C1C",
"#  c #4B340E",
"$  c #553D21",
"%  c #523F29",
"&  c #4A3921",
"*  c #57401C",
"=  c #5B441E",
"-  c #5F4A1F",
";  c #624A1C",
":  c #7E5E17",
">  c #574121",
",  c #5B4423",
"<  c #5E4824",
"1  c #53422A",
"2  c #5A4529",
"3  c #5E4B2A",
"4  c #5A4B30",
"5  c #624C25",
"6  c #624B29",
"7  c #665126",
"8  c #65522C",
"9  c #6A542C",
"0  c #6D592E",
"q  c #725B2D",
"w  c #634E31",
"e  c #665334",
"r  c #6B5532",
"t  c #6D5A33",
"y  c #6D5A3A",
"u  c #685835",
"i  c #725D33",
"p  c #795F32",
"a  c #725D3A",
"s  c #7C612E",
"d  c #766034",
"f  c #7B6335",
"g  c #7F6937",
"h  c #74623B",
"j  c #7D6539",
"k  c #7D693A",
"l  c #6E5C45",
"z  c #776443",
"x  c #7B6641",
"c  c #7C6941",
"v  c #7B6A4D",
"b  c #826216",
"n  c #8A6A2A",
"m  c #967423",
"M  c #9B7E2E",
"N  c #816536",
"B  c #836837",
"V  c #826739",
"C  c #836A3B",
"Z  c #886D3E",
"A  c #896C30",
"S  c #8C7538",
"D  c #9A7A35",
"F  c #8C6F42",
"G  c #876F42",
"H  c #867141",
"J  c #8C7243",
"K  c #85754A",
"L  c #917646",
"P  c #927F54",
"I  c #877754",
"U  c #B18D2E",
"Y  c #B89226",
"T  c #C0920D",
"R  c #C89814",
"E  c #D4A20D",
"W  c #D2A114",
"Q  c #F6AF04",
"!  c #F6B300",
"~  c #F7BA00",
"^  c #FABE00",
"/  c #F8BA0B",
"(  c #F8B70B",
")  c #F4AB15",
"_  c #F3A91B",
"`  c #F3A719",
"'  c #F6B213",
"]  c #FABB14",
"[  c #F8BD1B",
"{  c #F6B91A",
"}  c #CEA62D",
"|  c #CAA83D",
" . c #D8AA24",
".. c #F2A825",
"X. c #F9BE24",
"o. c #F5B429",
"O. c #F1AD39",
"+. c #E8BE37",
"@. c #FBC001",
"#. c #FAC30B",
"$. c #FCC605",
"%. c #FAC413",
"&. c #FAC817",
"*. c #FAC51C",
"=. c #FBC91C",
"-. c #F7C21F",
";. c #F5C124",
":. c #F9C624",
">. c #FBCB24",
",. c #F4C42B",
"<. c #F9C628",
"1. c #FBCC2B",
"2. c #FFD32B",
"3. c #F7C733",
"4. c #F8C733",
"5. c #F6CA34",
"6. c #FBCE33",
"7. c #FACE3C",
"8. c #F7CB3B",
"9. c #FCD234",
"0. c #FBD13C",
"q. c #8D8255",
"w. c #958658",
"e. c #998858",
"r. c #9B905F",
"t. c #A8965E",
"y. c #B39F5C",
"u. c #B09447",
"i. c #BDA14D",
"p. c #B6A05F",
"a. c #A49563",
"s. c #AA9964",
"d. c #ADA06D",
"f. c #B7A76C",
"g. c #AFA070",
"h. c #BCAD73",
"j. c #C3AD5C",
"k. c #D5B751",
"l. c #E2BF48",
"z. c #F3B146",
"x. c #F2B24B",
"c. c #F6BE53",
"v. c #F4BE5A",
"b. c #C1B276",
"n. c #C5B67A",
"m. c #CBBC7E",
"M. c #C8B672",
"N. c #DFC55E",
"B. c #FBCD45",
"V. c #F7CD4A",
"C. c #FBCF4A",
"Z. c #FBC841",
"A. c #FBD344",
"S. c #FFDA43",
"D. c #FAD44B",
"F. c #F9D64D",
"G. c #EECC57",
"H. c #F5C45B",
"J. c #EFD05B",
"K. c #FAD453",
"L. c #FCD953",
"P. c #FBD359",
"I. c #FCDB5C",
"U. c #F6D458",
"Y. c #FFE04D",
"T. c #FFE255",
"R. c #CEC17F",
"E. c #DFCA7C",
"W. c #F6C663",
"Q. c #F7CE6A",
"!. c #FCDD64",
"~. c #FCDE6B",
"^. c #FBD468",
"/. c #E5CF74",
"(. c #F7CF71",
"). c #EAD477",
"_. c #F3D974",
"`. c #F9D779",
"'. c #FADB7A",
"]. c #FADB73",
"[. c #FEE464",
"{. c #FCE16A",
"}. c #FFEB6E",
"|. c #FBE274",
" X c #FFEB74",
".X c #FCE47B",
"XX c #FFEC7F",
"oX c #D6C784",
"OX c #EED884",
"+X c #EDDB8B",
"@X c #E5D488",
"#X c #F4DA80",
"$X c #EEDE90",
"%X c #FBE683",
"&X c #FFEB84",
"*X c #F3E38C",
"=X c #FBE58D",
"-X c #FCEA8C",
";X c #EFE092",
":X c #FDEC94",
">X c #FDEE9A",
",X c #FBE593",
"<X c #FFF29D",
"1X c #FFF390",
"2X c #FDEFA3",
"3X c #FEF2A3",
"4X c #FEF4AB",
"5X c #FFFCAC",
"6X c #FFFAA0",
"7X c #FFFBB1",
/* pixels */
"$ $ $ $ $ $ $ $ $ $ $ $ $ $ $ $ $ $ $ $ @ @ @ @ , , , $ @ $ @ @ @ @ @ @ + + + @ @ @ @ @ @ @ @ @ = @ ",
"> $ $ $ $ $ $ $ $ $ $ $ $ $ $ $ 6 $ $ $ , $ $ $ @ @ @ @ $ @ @ , > , $ $ @ @ @ @ + @ + + @ @ @ @ @ @ ",
"@ @ @ O @ O O $ @ @ @ $ $ $ $ $ $ $ @ @ o o * 8 r t t q q q 0 2 O & 1 < 6 6 < 6 , , 5 = $ @ @ @ @ @ ",
"< , 2 , , , , 2 2 , , , $ 5 , 5 6 $ + 8 w.n.@X*X%X%X=X=X-X%XP.l.| u.i @ < 6 6 6 6 6 5 5 5 = 5 $ ; 5 ",
"6 6 6 5 6 6 6 6 5 < < 2 < 2 < 3 @ p h.*X XS.>.$.#.@.#.=.9.L.&X<X[.S.A.| k 1 2 2 , , $ , , , $ 5 = = ",
", , $ = $ , 5 $ , 5 < < < 5 , , s.,XT.&.~ ~ ^ ^ @.^ @.^ ^ ^ ^ 6.|.>X{.T.L.Y - * 5 5 5 5 5 5 5 5 5 @ ",
"5 5 5 5 5 5 5 5 5 6 9 9 9 5 i oX X#.~ ^ @.@.@.@.@.@.@.@.@.@.@.^ ~ A.XXU.F.[./.v % 9 6 6 6 6 6 8 6 6 ",
"5 5 , 5 5 5 5 5 5 5 5 6 * d $XS.^ ^ ^ @.@.@.@.@.@.@.@.@.~ @.^ @.@.^ =.:X-X0.S.,.b O @ , $ @ @ @ @ $ ",
"5 5 5 5 7 6 7 6 8 5 7 ; k ,X9.~ @.@.@.@.@.@.@.~ ^ @.^ ^ @.@.^ @.@.@.@.#.{.!.U.[.|.I 6 6 6 6 , < 6 6 ",
"0 0 i i i i p i i i q a $X9.~ @.@.@.@.@.@.^ ^ %.*.-.%./ ^ ^ @.@.@.@.@.@.#.=X>XT.!.V.A l a a a a a a ",
"; ; ; 5 ; ; 5 ; ; 5 5 oXS.~ @.^ @.@.~ ^ &.A.F.D.A.0.A.F.V.<.^ ^ @.@.@.@.@.&..X5.*.=.+.t r r 9 r r r ",
"@ @ @ @ @ @ @ @ @ # r.{.~ @.@.@.@.^ #.A.F.:.$.^ ^ ^ @.@.=.0.K.-.~ @.@.$.#.@.0.2X>X>X3Xy.X + O O @ + ",
"8 9 r 9 r r r r 9 G %X#.@.@.@.@.^ -.L.>.@.~ @.@.@.@.@.@.^ ~ #.F.5.~ #.#.#.#.^ !.I.^ #.#.: 1 , , , , ",
"9 6 6 9 w 9 9 r 6 n.A.^ @.@.@.^ =.L.#.@.@.@.@.@.@.@.@.@.@.@.@.@.A.V.~ #.#.@.@.%..XL.P.T.k., 5 6 6 6 ",
"5 6 6 6 6 5 5 = z '.^ @.@.@.^ %.L.$.@.@.@.@.@.@.^ @.@.^ @.@.@.@.~ A.Z.^ @.@.@.^ A.4X-X-X-XJ 6 r 9 r ",
"9 9 6 9 8 8 9 = h.A.^ ^ ^ @.@.L.%.~ @.@.@.~ @.%.9.[ ~ @.#.@.#.#.#.$.F.;.^ @.@.^ %.|.^ ^ @.W e i i i ",
"0 0 0 0 q q 0 a ).#.@.@.@.@.0.1.~ @.@.@.@.@.^ A.7Xv._ @.#.#.$.#.@.@.#.F.~ ^ @.@.^ I..X!.!.~.H i p a ",
"; 7 ; 7 7 9 ; w.[.~ @.@.@.#.F.~ @.@.@.@.@.@.^ 0.3Xv.` @.@.#.#.@.@.@.^ 1.5.^ @.@.^ >.3X-X-X1Xy.a k h ",
"; ; ; 7 6 9 , b.9.^ @.@.@.0.>.^ ^ @.@.@.@.^ 7.&X>X,XQ.o.~ @.#.@.@.@.@.@.D.^ @.@.^ #.|.#.^ @.E 8 9 9 ",
"9 9 7 9 9 9 9 /.#.^ @.~ #.A.@.@.@.@.@.@.^ A.2X2X2X3X3X,XO.( @.@.@.@.@.^ 5.:.^ ^ @.^ !.!.D.L.G.q 6 8 ",
"0 t 0 0 r 6 c _.^ @.@.^ >.5.@.@.@.@.@.^ *.:X>X:X_.%X2X>Xx.' @.@.@.@.@.^ &.Z.^ @.@.^ 0.4X<X2X6XK 6 0 ",
"t t t t i 9 w.!.^ ^ @.^ 9.-.^ @.@.@.@.^ A.3X,Xx.' #.I._...@.@.@.@.@.@.^ @.A.@.@.^ ^ 1.{.^ #.$.m 2 5 ",
"y y y t a w a.A.^ @.@.^ 0.#.^ @.^ @.@.^ L.4X'...%.@.$.#.^ @.@.@.@.@.@.@.@.7.%.^ @.@.*.|.>.:.>.U 1 3 ",
"y h h h a e g.B.^ @.@.@.A.~ @.@.@.@.@.^ A.<X-Xz.Q $.@.@.@.@.@.^ @.@.@.@.~ 6.*.@.@.^ @.-X4X4X7Xn.w y ",
"h h y l h u h.1.^ @.^ #.0.~ @.@.@.@.@.^ =.:X>X:XH.o.^ @.@.^ @.@.^ @.@.@.^ 1.:.^ @.@.@.|.0.6.2.k.l z ",
"> * * > 1 * d.2.~ @.^ %.7.@.@.@.@.@.@.@.^ D.2X<X<X=Xc.' @.@.@.@.@.@.@.@.^ >.1.^ @.@.@.{.%.^ $.R 1 3 ",
"3 3 3 3 8 > f.2.^ ^ @.#.7.~ @.@.^ @.@.@.@.^ 0.-X>X<X<XW._ @.@.^ @.@.@.@.^ >.1.^ @.@.@..X>X,X<XM.$ 3 ",
"w 8 8 8 u < h.9.^ @.@.#.7.@.@.@.@.@.@.@.@.@.^ #.F.:X>X:Xz.' @.@.@.^ @.@.^ 1.<.^ @.@.@..X.X~. Xj.1 4 ",
"u u 0 u t 3 d.0.~ @.^ @.B.^ @.@.@.@.^ @.^ @.@.@.^ :.:X<XW._ @.@.@.@.^ @.^ 6.*.@.@.^ %.{.^ ~ ^ T 1 3 ",
"8 8 8 8 u 3 r.D.^ @.@.@.0.#.@.@.@.@.@.@.@.%.~ @.$.^ ~.3XQ._ @.@.@.@.@.@.^ 0.%.^ ^ @.*.-X!.!.[.u.4 u ",
"u u 8 u u 8 q.!.! @.@.^ 6.:.@.@.@.@.@.^ =.-Xv.) ~ #.&X<XW._ $.@.^ @.@.@.@.A.@.@.@.^ >.<X<X:X<Xw.e y ",
"h h t h h i K _.^ @.@.^ =.5.^ @.@.@.@.^ !.4X:X#XP..X>X:Xz.' @.@.@.@.@.^ =.7.^ @.@.^ F.F.^ @.$.S y l ",
"h h d h h h h /.&.$.@.@.@.V.@.@.@.@.@.^ 1.:X3X<X3X>X3X(...^ @.@.^ @.@.^ 0.*.@.@.@.~ !.I.6.0.3.e e u ",
"0 h i d d h 0 b.5.@.@.@.@.5.,.@.^ @.@.@.^ =.!.:X:X:XQ._ ^ @.@.@.@.@.^ #.D.@.@.@.@.$.-X3X2X5Xh.  $ 3 ",
"t t 0 0 0 0 7 r.!.~ @.@.@.#.V.@.@.@.@.@.@.@.^ A.3XH.) $.@.@.@.^ @.@.^ 9.1.^ @.@.^ 9.{.#.&.=.M & o . ",
"0 0 0 0 0 0 0 0 @X/ @.@.@.@.5.5.^ @.@.@.@.@.^ A.7Xv.) @.@.@.@.@.@.^ #.F.^ @.@.@.~ !.L.:.>.;.0 y h e ",
"0 0 0 0 0 0 q 7 h.D.~ @.@.@.@.V.*.^ @.@.@.@.^ =.F.X./ @.@.^ @.@.@.@.L.&.^ @.@.@.%.:X3X3X5Xn.r i t y ",
"d d d d d q d 0 H #X! @.@.@.@.#.P./ @.@.@.@.@.@.^ @.@.^ @.@.@.@.^ A.1.^ @.@.@.^ L.L.#.&.>.S y d t r ",
"d d d d d d d d 9 h.A.~ @.@.@.@.%.K.] ^ @.@.@.@.^ @.@.@.@.@.^ ^ D.6.^ @.@.@.^ %.-XD.6.0.} t d d i d ",
"0 0 d 0 0 d 0 q q k @X{ @.@.@.@.^ #.K.4.^ ^ @.@.@.@.@.@.^ ^ *.L.2.^ @.@.@.@.^ {.:X-X:X:XK i f h f h ",
"p f d d p p i i d 9 t.|.Q @.@.@.@.^ @.7.K.4.] ^ ^ ^ ^ #.>.A.F.%.^ @.@.^ @.^ 7.|.@.^ $.Y t j d s d d ",
"p d f f h f f f f j q R.K.Q $.@.@.@.@.^ #.6.D.D.D.C.A.F.A.=.^ ^ @.@.@.@.^ *.3X-X|.&Xk.s k g g f f j ",
"p d f j j j j k j j f f @XZ.! @.@.@.@.@.@.^ ^ @.%.%.#.@.^ ^ @.@.@.@.@.^ %..XS.0.S.J.K g S k C C C C ",
"f f j j N N V C V k V j G $XZ.! @.@.@.@.@.@.@.^ ^ ^ ^ ^ @.^ @.@.@.@.^ %.:X%X0.0.3.m j Z Z Z Z C Z G ",
"d f f f f f j f k V k C f G @XP.! ^ @.^ @.@.^ ^ @.@.@.@.@.@.^ @.@.^ <..XI.F.[._.P f C N k k B V C C ",
"f f f f f f f p p f f f f p f oX'.{ ! ^ @.@.@.^ @.^ @.@.@.^ @.^ / K.3X|.0.S. .n s B N N k g g j V V ",
"d d f f f f f f f f f f f f p q s.$X!.X.~ ~ ^ ^ ^ ^ ^ ^ ^ ~ / V.,X|.A.S.K.y.x N B N B Z Z Z N C Z Z ",
"N j j j N j j j j k V k C V C C p G h.+X'.K.6.:.] ] *.<.C.~.-X&X XL.J.i.A p N B C Z Z F F J Z F J L ",
"B B B g j g d f d N j j k N j j j p i j e.b.oX@X@XOX+X$X).).k.l.i.D V h V C j V V Z Z Z Z Z Z L J Z ",
"g B k g g f f f g N N j j j f j h f V j i q i p V G G C N N p i i i j k C C k C Z H H H Z Z Z L L J "
};
